<svg width="397" height="61" viewBox="0 0 397 61" fill="none" xmlns="http://www.w3.org/2000/svg">
<path d="M69.4628 35.392C69.4628 36.7573 69.9321 37.9307 70.8708 38.912C71.8521 39.8507 73.0254 40.32 74.3908 40.32H94.1668C95.5321 40.32 96.6841 39.8507 97.6228 38.912C98.6041 37.9307 99.0948 36.7573 99.0948 35.392C99.0948 34.0267 98.6041 32.8747 97.6228 31.936C96.6841 30.9547 95.5321 30.464 94.1668 30.464H74.0708V22.784H94.1668C95.9161 22.784 97.5588 23.1253 99.0948 23.808C100.631 24.448 101.953 25.344 103.063 26.496C104.215 27.6053 105.111 28.928 105.751 30.464C106.433 32 106.775 33.6427 106.775 35.392C106.775 37.1413 106.433 38.784 105.751 40.32C105.111 41.856 104.215 43.2 103.063 44.352C101.953 45.4613 100.631 46.3573 99.0948 47.04C97.5588 47.68 95.9161 48 94.1668 48H74.3908C72.6414 48 70.9988 47.68 69.4628 47.04C67.9268 46.3573 66.5828 45.4613 65.4308 44.352C64.3214 43.2 63.4254 41.856 62.7428 40.32C62.1028 38.784 61.7828 37.1413 61.7828 35.392V15.04H69.4628V35.392ZM116.088 19.52H108.408V15.04H116.088V19.52ZM108.408 22.784H116.088V48H108.408V22.784ZM127.4 22.784H147.816V30.464H127.4V35.392C127.4 36.7573 127.87 37.9307 128.808 38.912C129.79 39.8507 130.963 40.32 132.328 40.32H151.784V48H132.328C130.579 48 128.936 47.68 127.4 47.04C125.864 46.3573 124.52 45.4613 123.368 44.352C122.259 43.2 121.363 41.856 120.68 40.32C120.04 38.784 119.72 37.1413 119.72 35.392V15.04H127.4V22.784ZM161.4 26.624H180.152L193.912 12.928H204.664L187.128 30.464L204.664 48H193.912L180.152 34.24H161.4V48H153.72V12.928H161.4V26.624ZM215.953 48C214.204 48 212.561 47.68 211.025 47.04C209.489 46.3573 208.145 45.4613 206.993 44.352C205.884 43.2 204.988 41.856 204.305 40.32C203.665 38.784 203.345 37.1413 203.345 35.392C203.345 33.6427 203.665 32 204.305 30.464C204.988 28.928 205.884 27.6053 206.993 26.496C208.145 25.344 209.489 24.448 211.025 23.808C212.561 23.1253 214.204 22.784 215.953 22.784H237.137C238.887 22.784 240.529 23.1253 242.065 23.808C243.601 24.448 244.924 25.344 246.033 26.496C247.185 27.6053 248.081 28.928 248.721 30.464C249.404 32 249.745 33.6427 249.745 35.392C249.745 37.1413 249.404 38.784 248.721 40.32C248.081 41.856 247.185 43.2 246.033 44.352C244.924 45.4613 243.601 46.3573 242.065 47.04C240.529 47.68 238.887 48 237.137 48H215.953ZM215.953 30.464C214.588 30.464 213.415 30.9547 212.433 31.936C211.495 32.8747 211.025 34.0267 211.025 35.392C211.025 36.7573 211.495 37.9307 212.433 38.912C213.415 39.8507 214.588 40.32 215.953 40.32H237.137C238.503 40.32 239.655 39.8507 240.593 38.912C241.575 37.9307 242.065 36.7573 242.065 35.392C242.065 34.0267 241.575 32.8747 240.593 31.936C239.655 30.9547 238.503 30.464 237.137 30.464H215.953ZM265.203 48C263.454 48 261.811 47.68 260.275 47.04C258.739 46.3573 257.395 45.4613 256.243 44.352C255.134 43.2 254.238 41.856 253.555 40.32C252.915 38.784 252.595 37.1413 252.595 35.392C252.595 33.6427 252.915 32 253.555 30.464C254.238 28.928 255.134 27.6053 256.243 26.496C257.395 25.344 258.739 24.448 260.275 23.808C261.811 23.1253 263.454 22.784 265.203 22.784H286.387C288.137 22.784 289.779 23.1253 291.315 23.808C292.851 24.448 294.174 25.344 295.283 26.496C296.435 27.6053 297.331 28.928 297.971 30.464C298.654 32 298.995 33.6427 298.995 35.392C298.995 37.1413 298.654 38.784 297.971 40.32C297.331 41.856 296.435 43.2 295.283 44.352C294.174 45.4613 292.851 46.3573 291.315 47.04C289.779 47.68 288.137 48 286.387 48H265.203ZM265.203 30.464C263.838 30.464 262.665 30.9547 261.683 31.936C260.745 32.8747 260.275 34.0267 260.275 35.392C260.275 36.7573 260.745 37.9307 261.683 38.912C262.665 39.8507 263.838 40.32 265.203 40.32H286.387C287.753 40.32 288.905 39.8507 289.843 38.912C290.825 37.9307 291.315 36.7573 291.315 35.392C291.315 34.0267 290.825 32.8747 289.843 31.936C288.905 30.9547 287.753 30.464 286.387 30.464H265.203ZM309.525 22.784H329.941V30.464H309.525V35.392C309.525 36.7573 309.995 37.9307 310.933 38.912C311.915 39.8507 313.088 40.32 314.453 40.32H333.909V48H314.453C312.704 48 311.061 47.68 309.525 47.04C307.989 46.3573 306.645 45.4613 305.493 44.352C304.384 43.2 303.488 41.856 302.805 40.32C302.165 38.784 301.845 37.1413 301.845 35.392V15.04H309.525V22.784ZM368.549 48H348.453C346.704 48 345.061 47.68 343.525 47.04C341.989 46.3573 340.645 45.4613 339.493 44.352C338.384 43.2 337.488 41.856 336.805 40.32C336.165 38.784 335.845 37.1413 335.845 35.392C335.845 33.6427 336.165 32 336.805 30.464C337.488 28.928 338.384 27.6053 339.493 26.496C340.645 25.344 341.989 24.448 343.525 23.808C345.061 23.1253 346.704 22.784 348.453 22.784H368.229C369.979 22.784 371.621 23.1253 373.157 23.808C374.693 24.448 376.016 25.344 377.125 26.496C378.277 27.6053 379.173 28.928 379.813 30.464C380.496 32 380.837 33.6427 380.837 35.392V48H373.157V35.392C373.157 34.0267 372.667 32.8747 371.685 31.936C370.747 30.9547 369.595 30.464 368.229 30.464H348.453C347.088 30.464 345.915 30.9547 344.933 31.936C343.995 32.8747 343.525 34.0267 343.525 35.392C343.525 36.7573 343.995 37.9307 344.933 38.912C345.915 39.8507 347.088 40.32 348.453 40.32H368.549V48Z" fill="#0075FF"/>
<path d="M70.8708 38.912L70.1481 39.6032L70.1635 39.6193L70.1796 39.6346L70.8708 38.912ZM97.6228 38.912L96.9157 38.2049L96.9157 38.2049L97.6228 38.912ZM97.6228 31.936L96.9001 32.6272L96.9155 32.6433L96.9316 32.6586L97.6228 31.936ZM74.0708 30.464H73.0708V31.464H74.0708V30.464ZM74.0708 22.784V21.784H73.0708V22.784H74.0708ZM99.0948 23.808L98.6886 24.7218L98.6993 24.7266L98.7102 24.7311L99.0948 23.808ZM103.063 26.496L102.342 27.1896L102.356 27.2032L102.369 27.2163L103.063 26.496ZM105.751 30.464L104.828 30.8486L104.832 30.8594L104.837 30.8701L105.751 30.464ZM105.751 40.32L104.837 39.9139L104.832 39.9246L104.828 39.9354L105.751 40.32ZM103.063 44.352L103.77 45.0591L103.77 45.0591L103.063 44.352ZM99.0948 47.04L99.4794 47.9631L99.4902 47.9586L99.5009 47.9538L99.0948 47.04ZM69.4628 47.04L69.0566 47.9538L69.0673 47.9586L69.0782 47.9631L69.4628 47.04ZM65.4308 44.352L64.7105 45.0456L64.7235 45.0592L64.7371 45.0723L65.4308 44.352ZM62.7428 40.32L61.8197 40.7046L61.8242 40.7154L61.829 40.7261L62.7428 40.32ZM61.7828 15.04V14.04H60.7828V15.04H61.7828ZM69.4628 15.04H70.4628V14.04H69.4628V15.04ZM68.4628 35.392C68.4628 37.0133 69.0304 38.4347 70.1481 39.6032L71.5934 38.2208C70.8338 37.4267 70.4628 36.5014 70.4628 35.392H68.4628ZM70.1796 39.6346C71.3481 40.7524 72.7695 41.32 74.3908 41.32V39.32C73.2814 39.32 72.3561 38.9489 71.562 38.1894L70.1796 39.6346ZM74.3908 41.32H94.1668V39.32H74.3908V41.32ZM94.1668 41.32C95.7889 41.32 97.1978 40.7512 98.3299 39.6191L96.9157 38.2049C96.1704 38.9501 95.2754 39.32 94.1668 39.32V41.32ZM98.3299 39.6191C99.4953 38.4537 100.095 37.0274 100.095 35.392H98.0948C98.0948 36.4873 97.7129 37.4076 96.9157 38.2049L98.3299 39.6191ZM100.095 35.392C100.095 33.7554 99.4938 32.3418 98.314 31.2134L96.9316 32.6586C97.7145 33.4075 98.0948 34.2979 98.0948 35.392H100.095ZM98.3454 31.2448C97.2169 30.065 95.8034 29.464 94.1668 29.464V31.464C95.2609 31.464 96.1513 31.8443 96.9001 32.6272L98.3454 31.2448ZM94.1668 29.464H74.0708V31.464H94.1668V29.464ZM75.0708 30.464V22.784H73.0708V30.464H75.0708ZM74.0708 23.784H94.1668V21.784H74.0708V23.784ZM94.1668 23.784C95.782 23.784 97.2857 24.0983 98.6886 24.7218L99.5009 22.8942C97.8318 22.1524 96.0502 21.784 94.1668 21.784V23.784ZM98.7102 24.7311C100.125 25.3206 101.332 26.1403 102.342 27.1896L103.783 25.8024C102.575 24.5477 101.137 23.5754 99.4794 22.8849L98.7102 24.7311ZM102.369 27.2163C103.418 28.2268 104.238 29.4338 104.828 30.8486L106.674 30.0794C105.983 28.4222 105.011 26.9839 103.756 25.7757L102.369 27.2163ZM104.837 30.8701C105.46 32.2731 105.775 33.7768 105.775 35.392H107.775C107.775 33.5086 107.406 31.7269 106.665 30.0579L104.837 30.8701ZM105.775 35.392C105.775 37.0072 105.46 38.5109 104.837 39.9139L106.665 40.7261C107.406 39.0571 107.775 37.2754 107.775 35.392H105.775ZM104.828 39.9354C104.237 41.3535 103.413 42.5873 102.356 43.6449L103.77 45.0591C105.016 43.8127 105.985 42.3585 106.674 40.7046L104.828 39.9354ZM102.356 43.6449C101.339 44.6614 100.121 45.4898 98.6886 46.1262L99.5009 47.9538C101.141 47.2249 102.568 46.2613 103.77 45.0591L102.356 43.6449ZM98.7102 46.1169C97.3022 46.7036 95.791 47 94.1668 47V49C96.0413 49 97.8153 48.6564 99.4794 47.9631L98.7102 46.1169ZM94.1668 47H74.3908V49H94.1668V47ZM74.3908 47C72.7666 47 71.2553 46.7036 69.8474 46.1169L69.0782 47.9631C70.7422 48.6564 72.5163 49 74.3908 49V47ZM69.8689 46.1262C68.4338 45.4884 67.1884 44.6562 66.1244 43.6317L64.7371 45.0723C65.9772 46.2664 67.4198 47.2263 69.0566 47.9538L69.8689 46.1262ZM66.1511 43.6584C65.1266 42.5944 64.2944 41.349 63.6566 39.9139L61.829 40.7261C62.5565 42.363 63.5163 43.8056 64.7105 45.0456L66.1511 43.6584ZM63.6659 39.9354C63.0792 38.5275 62.7828 37.0162 62.7828 35.392H60.7828C60.7828 37.2665 61.1263 39.0405 61.8197 40.7046L63.6659 39.9354ZM62.7828 35.392V15.04H60.7828V35.392H62.7828ZM61.7828 16.04H69.4628V14.04H61.7828V16.04ZM68.4628 15.04V35.392H70.4628V15.04H68.4628ZM116.088 19.52V20.52H117.088V19.52H116.088ZM108.408 19.52H107.408V20.52H108.408V19.52ZM108.408 15.04V14.04H107.408V15.04H108.408ZM116.088 15.04H117.088V14.04H116.088V15.04ZM108.408 22.784V21.784H107.408V22.784H108.408ZM116.088 22.784H117.088V21.784H116.088V22.784ZM116.088 48V49H117.088V48H116.088ZM108.408 48H107.408V49H108.408V48ZM116.088 18.52H108.408V20.52H116.088V18.52ZM109.408 19.52V15.04H107.408V19.52H109.408ZM108.408 16.04H116.088V14.04H108.408V16.04ZM115.088 15.04V19.52H117.088V15.04H115.088ZM108.408 23.784H116.088V21.784H108.408V23.784ZM115.088 22.784V48H117.088V22.784H115.088ZM116.088 47H108.408V49H116.088V47ZM109.408 48V22.784H107.408V48H109.408ZM127.4 22.784H126.4V23.784H127.4V22.784ZM147.816 22.784H148.816V21.784H147.816V22.784ZM147.816 30.464V31.464H148.816V30.464H147.816ZM127.4 30.464V29.464H126.4V30.464H127.4ZM128.808 38.912L128.086 39.6032L128.101 39.6193L128.117 39.6346L128.808 38.912ZM151.784 40.32H152.784V39.32H151.784V40.32ZM151.784 48V49H152.784V48H151.784ZM127.4 47.04L126.994 47.9538L127.005 47.9586L127.016 47.9631L127.4 47.04ZM123.368 44.352L122.648 45.0456L122.661 45.0592L122.675 45.0723L123.368 44.352ZM120.68 40.32L119.757 40.7046L119.762 40.7154L119.766 40.7261L120.68 40.32ZM119.72 15.04V14.04H118.72V15.04H119.72ZM127.4 15.04H128.4V14.04H127.4V15.04ZM127.4 23.784H147.816V21.784H127.4V23.784ZM146.816 22.784V30.464H148.816V22.784H146.816ZM147.816 29.464H127.4V31.464H147.816V29.464ZM126.4 30.464V35.392H128.4V30.464H126.4ZM126.4 35.392C126.4 37.0133 126.968 38.4347 128.086 39.6032L129.531 38.2208C128.771 37.4267 128.4 36.5014 128.4 35.392H126.4ZM128.117 39.6346C129.286 40.7524 130.707 41.32 132.328 41.32V39.32C131.219 39.32 130.294 38.9489 129.499 38.1894L128.117 39.6346ZM132.328 41.32H151.784V39.32H132.328V41.32ZM150.784 40.32V48H152.784V40.32H150.784ZM151.784 47H132.328V49H151.784V47ZM132.328 47C130.704 47 129.193 46.7036 127.785 46.1169L127.016 47.9631C128.68 48.6564 130.454 49 132.328 49V47ZM127.806 46.1262C126.371 45.4884 125.126 44.6562 124.062 43.6317L122.675 45.0723C123.915 46.2664 125.357 47.2263 126.994 47.9538L127.806 46.1262ZM124.089 43.6584C123.064 42.5944 122.232 41.349 121.594 39.9139L119.766 40.7261C120.494 42.363 121.454 43.8056 122.648 45.0456L124.089 43.6584ZM121.603 39.9354C121.017 38.5275 120.72 37.0162 120.72 35.392H118.72C118.72 37.2665 119.064 39.0405 119.757 40.7046L121.603 39.9354ZM120.72 35.392V15.04H118.72V35.392H120.72ZM119.72 16.04H127.4V14.04H119.72V16.04ZM126.4 15.04V22.784H128.4V15.04H126.4ZM161.4 26.624H160.4V27.624H161.4V26.624ZM180.152 26.624V27.624H180.565L180.858 27.3328L180.152 26.624ZM193.912 12.928V11.928H193.499L193.207 12.2192L193.912 12.928ZM204.664 12.928L205.371 13.6351L207.078 11.928H204.664V12.928ZM187.128 30.464L186.421 29.7569L185.714 30.464L186.421 31.1711L187.128 30.464ZM204.664 48V49H207.078L205.371 47.2929L204.664 48ZM193.912 48L193.205 48.7071L193.498 49H193.912V48ZM180.152 34.24L180.859 33.5329L180.566 33.24H180.152V34.24ZM161.4 34.24V33.24H160.4V34.24H161.4ZM161.4 48V49H162.4V48H161.4ZM153.72 48H152.72V49H153.72V48ZM153.72 12.928V11.928H152.72V12.928H153.72ZM161.4 12.928H162.4V11.928H161.4V12.928ZM161.4 27.624H180.152V25.624H161.4V27.624ZM180.858 27.3328L194.618 13.6368L193.207 12.2192L179.447 25.9152L180.858 27.3328ZM193.912 13.928H204.664V11.928H193.912V13.928ZM203.957 12.2209L186.421 29.7569L187.835 31.1711L205.371 13.6351L203.957 12.2209ZM186.421 31.1711L203.957 48.7071L205.371 47.2929L187.835 29.7569L186.421 31.1711ZM204.664 47H193.912V49H204.664V47ZM194.619 47.2929L180.859 33.5329L179.445 34.9471L193.205 48.7071L194.619 47.2929ZM180.152 33.24H161.4V35.24H180.152V33.24ZM160.4 34.24V48H162.4V34.24H160.4ZM161.4 47H153.72V49H161.4V47ZM154.72 48V12.928H152.72V48H154.72ZM153.72 13.928H161.4V11.928H153.72V13.928ZM160.4 12.928V26.624H162.4V12.928H160.4ZM211.025 47.04L210.619 47.9538L210.63 47.9586L210.641 47.9631L211.025 47.04ZM206.993 44.352L206.273 45.0456L206.286 45.0592L206.3 45.0723L206.993 44.352ZM204.305 40.32L203.382 40.7046L203.387 40.7154L203.391 40.7261L204.305 40.32ZM204.305 30.464L203.391 30.0579L203.387 30.0686L203.382 30.0794L204.305 30.464ZM206.993 26.496L206.286 25.7889L206.286 25.7889L206.993 26.496ZM211.025 23.808L211.41 24.7311L211.421 24.7266L211.431 24.7218L211.025 23.808ZM242.065 23.808L241.659 24.7218L241.67 24.7266L241.681 24.7311L242.065 23.808ZM246.033 26.496L245.313 27.1896L245.326 27.2032L245.34 27.2163L246.033 26.496ZM248.721 30.464L247.798 30.8486L247.803 30.8594L247.807 30.8701L248.721 30.464ZM248.721 40.32L247.807 39.9139L247.803 39.9246L247.798 39.9354L248.721 40.32ZM246.033 44.352L246.74 45.0591L246.74 45.0591L246.033 44.352ZM242.065 47.04L242.45 47.9631L242.461 47.9586L242.471 47.9538L242.065 47.04ZM212.433 31.936L213.14 32.6431L212.433 31.936ZM212.433 38.912L211.711 39.6032L211.726 39.6193L211.742 39.6346L212.433 38.912ZM240.593 38.912L241.3 39.6191L241.3 39.6191L240.593 38.912ZM240.593 31.936L239.871 32.6272L239.886 32.6433L239.902 32.6586L240.593 31.936ZM215.953 47C214.329 47 212.818 46.7036 211.41 46.1169L210.641 47.9631C212.305 48.6564 214.079 49 215.953 49V47ZM211.431 46.1262C209.996 45.4884 208.751 44.6562 207.687 43.6317L206.3 45.0723C207.54 46.2664 208.982 47.2263 210.619 47.9538L211.431 46.1262ZM207.714 43.6584C206.689 42.5944 205.857 41.349 205.219 39.9139L203.391 40.7261C204.119 42.363 205.079 43.8056 206.273 45.0456L207.714 43.6584ZM205.228 39.9354C204.642 38.5275 204.345 37.0162 204.345 35.392H202.345C202.345 37.2665 202.689 39.0405 203.382 40.7046L205.228 39.9354ZM204.345 35.392C204.345 33.7678 204.642 32.2565 205.228 30.8486L203.382 30.0794C202.689 31.7435 202.345 33.5175 202.345 35.392H204.345ZM205.219 30.8701C205.855 29.4382 206.684 28.2196 207.7 27.2031L206.286 25.7889C205.084 26.991 204.12 28.4178 203.391 30.0579L205.219 30.8701ZM207.7 27.2031C208.758 26.1455 209.992 25.3219 211.41 24.7311L210.641 22.8849C208.987 23.5741 207.533 24.5425 206.286 25.7889L207.7 27.2031ZM211.431 24.7218C212.834 24.0983 214.338 23.784 215.953 23.784V21.784C214.07 21.784 212.288 22.1524 210.619 22.8942L211.431 24.7218ZM215.953 23.784H237.137V21.784H215.953V23.784ZM237.137 23.784C238.753 23.784 240.256 24.0983 241.659 24.7218L242.471 22.8942C240.802 22.1524 239.021 21.784 237.137 21.784V23.784ZM241.681 24.7311C243.095 25.3206 244.302 26.1403 245.313 27.1896L246.754 25.8024C245.545 24.5477 244.107 23.5754 242.45 22.8849L241.681 24.7311ZM245.34 27.2163C246.389 28.2268 247.209 29.4338 247.798 30.8486L249.644 30.0794C248.954 28.4222 247.982 26.9839 246.727 25.7757L245.34 27.2163ZM247.807 30.8701C248.431 32.2731 248.745 33.7768 248.745 35.392H250.745C250.745 33.5086 250.377 31.7269 249.635 30.0579L247.807 30.8701ZM248.745 35.392C248.745 37.0072 248.431 38.5109 247.807 39.9139L249.635 40.7261C250.377 39.0571 250.745 37.2754 250.745 35.392H248.745ZM247.798 39.9354C247.207 41.3535 246.384 42.5873 245.326 43.6449L246.74 45.0591C247.987 43.8127 248.955 42.3585 249.644 40.7046L247.798 39.9354ZM245.326 43.6449C244.31 44.6614 243.091 45.4898 241.659 46.1262L242.471 47.9538C244.112 47.2249 245.538 46.2613 246.74 45.0591L245.326 43.6449ZM241.681 46.1169C240.273 46.7036 238.761 47 237.137 47V49C239.012 49 240.786 48.6564 242.45 47.9631L241.681 46.1169ZM237.137 47H215.953V49H237.137V47ZM215.953 29.464C214.318 29.464 212.892 30.0635 211.726 31.2289L213.14 32.6431C213.938 31.8458 214.858 31.464 215.953 31.464V29.464ZM211.726 31.2289C210.594 32.361 210.025 33.7699 210.025 35.392H212.025C212.025 34.2834 212.395 33.3883 213.14 32.6431L211.726 31.2289ZM210.025 35.392C210.025 37.0133 210.593 38.4347 211.711 39.6032L213.156 38.2208C212.396 37.4267 212.025 36.5014 212.025 35.392H210.025ZM211.742 39.6346C212.911 40.7524 214.332 41.32 215.953 41.32V39.32C214.844 39.32 213.919 38.9489 213.124 38.1894L211.742 39.6346ZM215.953 41.32H237.137V39.32H215.953V41.32ZM237.137 41.32C238.759 41.32 240.168 40.7512 241.3 39.6191L239.886 38.2049C239.141 38.9501 238.246 39.32 237.137 39.32V41.32ZM241.3 39.6191C242.466 38.4537 243.065 37.0274 243.065 35.392H241.065C241.065 36.4873 240.683 37.4076 239.886 38.2049L241.3 39.6191ZM243.065 35.392C243.065 33.7554 242.464 32.3418 241.284 31.2134L239.902 32.6586C240.685 33.4075 241.065 34.2979 241.065 35.392H243.065ZM241.316 31.2448C240.187 30.065 238.774 29.464 237.137 29.464V31.464C238.231 31.464 239.122 31.8443 239.871 32.6272L241.316 31.2448ZM237.137 29.464H215.953V31.464H237.137V29.464ZM260.275 47.04L259.869 47.9538L259.88 47.9586L259.891 47.9631L260.275 47.04ZM256.243 44.352L255.523 45.0456L255.536 45.0592L255.55 45.0723L256.243 44.352ZM253.555 40.32L252.632 40.7046L252.637 40.7154L252.641 40.7261L253.555 40.32ZM253.555 30.464L252.641 30.0579L252.637 30.0686L252.632 30.0794L253.555 30.464ZM256.243 26.496L255.536 25.7889L255.536 25.7889L256.243 26.496ZM260.275 23.808L260.66 24.7311L260.671 24.7266L260.681 24.7218L260.275 23.808ZM291.315 23.808L290.909 24.7218L290.92 24.7266L290.931 24.7311L291.315 23.808ZM295.283 26.496L294.563 27.1896L294.576 27.2032L294.59 27.2163L295.283 26.496ZM297.971 30.464L297.048 30.8486L297.053 30.8594L297.057 30.8701L297.971 30.464ZM297.971 40.32L297.057 39.9139L297.053 39.9246L297.048 39.9354L297.971 40.32ZM295.283 44.352L295.99 45.0591L295.99 45.0591L295.283 44.352ZM291.315 47.04L291.7 47.9631L291.711 47.9586L291.721 47.9538L291.315 47.04ZM261.683 31.936L262.39 32.6431L261.683 31.936ZM261.683 38.912L260.961 39.6032L260.976 39.6193L260.992 39.6346L261.683 38.912ZM289.843 38.912L290.55 39.6191L290.55 39.6191L289.843 38.912ZM289.843 31.936L289.121 32.6272L289.136 32.6433L289.152 32.6586L289.843 31.936ZM265.203 47C263.579 47 262.068 46.7036 260.66 46.1169L259.891 47.9631C261.555 48.6564 263.329 49 265.203 49V47ZM260.681 46.1262C259.246 45.4884 258.001 44.6562 256.937 43.6317L255.55 45.0723C256.79 46.2664 258.232 47.2263 259.869 47.9538L260.681 46.1262ZM256.964 43.6584C255.939 42.5944 255.107 41.349 254.469 39.9139L252.641 40.7261C253.369 42.363 254.329 43.8056 255.523 45.0456L256.964 43.6584ZM254.478 39.9354C253.892 38.5275 253.595 37.0162 253.595 35.392H251.595C251.595 37.2665 251.939 39.0405 252.632 40.7046L254.478 39.9354ZM253.595 35.392C253.595 33.7678 253.892 32.2565 254.478 30.8486L252.632 30.0794C251.939 31.7435 251.595 33.5175 251.595 35.392H253.595ZM254.469 30.8701C255.105 29.4382 255.934 28.2196 256.95 27.2031L255.536 25.7889C254.334 26.991 253.37 28.4178 252.641 30.0579L254.469 30.8701ZM256.95 27.2031C258.008 26.1455 259.242 25.3219 260.66 24.7311L259.891 22.8849C258.237 23.5741 256.783 24.5425 255.536 25.7889L256.95 27.2031ZM260.681 24.7218C262.084 24.0983 263.588 23.784 265.203 23.784V21.784C263.32 21.784 261.538 22.1524 259.869 22.8942L260.681 24.7218ZM265.203 23.784H286.387V21.784H265.203V23.784ZM286.387 23.784C288.003 23.784 289.506 24.0983 290.909 24.7218L291.721 22.8942C290.052 22.1524 288.271 21.784 286.387 21.784V23.784ZM290.931 24.7311C292.345 25.3206 293.552 26.1403 294.563 27.1896L296.004 25.8024C294.795 24.5477 293.357 23.5754 291.7 22.8849L290.931 24.7311ZM294.59 27.2163C295.639 28.2268 296.459 29.4338 297.048 30.8486L298.894 30.0794C298.204 28.4222 297.232 26.9839 295.977 25.7757L294.59 27.2163ZM297.057 30.8701C297.681 32.2731 297.995 33.7768 297.995 35.392H299.995C299.995 33.5086 299.627 31.7269 298.885 30.0579L297.057 30.8701ZM297.995 35.392C297.995 37.0072 297.681 38.5109 297.057 39.9139L298.885 40.7261C299.627 39.0571 299.995 37.2754 299.995 35.392H297.995ZM297.048 39.9354C296.457 41.3535 295.634 42.5873 294.576 43.6449L295.99 45.0591C297.237 43.8127 298.205 42.3585 298.894 40.7046L297.048 39.9354ZM294.576 43.6449C293.56 44.6614 292.341 45.4898 290.909 46.1262L291.721 47.9538C293.362 47.2249 294.788 46.2613 295.99 45.0591L294.576 43.6449ZM290.931 46.1169C289.523 46.7036 288.011 47 286.387 47V49C288.262 49 290.036 48.6564 291.7 47.9631L290.931 46.1169ZM286.387 47H265.203V49H286.387V47ZM265.203 29.464C263.568 29.464 262.142 30.0635 260.976 31.2289L262.39 32.6431C263.188 31.8458 264.108 31.464 265.203 31.464V29.464ZM260.976 31.2289C259.844 32.361 259.275 33.7699 259.275 35.392H261.275C261.275 34.2834 261.645 33.3883 262.39 32.6431L260.976 31.2289ZM259.275 35.392C259.275 37.0133 259.843 38.4347 260.961 39.6032L262.406 38.2208C261.646 37.4267 261.275 36.5014 261.275 35.392H259.275ZM260.992 39.6346C262.161 40.7524 263.582 41.32 265.203 41.32V39.32C264.094 39.32 263.169 38.9489 262.374 38.1894L260.992 39.6346ZM265.203 41.32H286.387V39.32H265.203V41.32ZM286.387 41.32C288.009 41.32 289.418 40.7512 290.55 39.6191L289.136 38.2049C288.391 38.9501 287.496 39.32 286.387 39.32V41.32ZM290.55 39.6191C291.716 38.4537 292.315 37.0274 292.315 35.392H290.315C290.315 36.4873 289.933 37.4076 289.136 38.2049L290.55 39.6191ZM292.315 35.392C292.315 33.7554 291.714 32.3418 290.534 31.2134L289.152 32.6586C289.935 33.4075 290.315 34.2979 290.315 35.392H292.315ZM290.566 31.2448C289.437 30.065 288.024 29.464 286.387 29.464V31.464C287.481 31.464 288.372 31.8443 289.121 32.6272L290.566 31.2448ZM286.387 29.464H265.203V31.464H286.387V29.464ZM309.525 22.784H308.525V23.784H309.525V22.784ZM329.941 22.784H330.941V21.784H329.941V22.784ZM329.941 30.464V31.464H330.941V30.464H329.941ZM309.525 30.464V29.464H308.525V30.464H309.525ZM310.933 38.912L310.211 39.6032L310.226 39.6193L310.242 39.6346L310.933 38.912ZM333.909 40.32H334.909V39.32H333.909V40.32ZM333.909 48V49H334.909V48H333.909ZM309.525 47.04L309.119 47.9538L309.13 47.9586L309.141 47.9631L309.525 47.04ZM305.493 44.352L304.773 45.0456L304.786 45.0592L304.8 45.0723L305.493 44.352ZM302.805 40.32L301.882 40.7046L301.887 40.7154L301.891 40.7261L302.805 40.32ZM301.845 15.04V14.04H300.845V15.04H301.845ZM309.525 15.04H310.525V14.04H309.525V15.04ZM309.525 23.784H329.941V21.784H309.525V23.784ZM328.941 22.784V30.464H330.941V22.784H328.941ZM329.941 29.464H309.525V31.464H329.941V29.464ZM308.525 30.464V35.392H310.525V30.464H308.525ZM308.525 35.392C308.525 37.0133 309.093 38.4347 310.211 39.6032L311.656 38.2208C310.896 37.4267 310.525 36.5014 310.525 35.392H308.525ZM310.242 39.6346C311.411 40.7524 312.832 41.32 314.453 41.32V39.32C313.344 39.32 312.419 38.9489 311.624 38.1894L310.242 39.6346ZM314.453 41.32H333.909V39.32H314.453V41.32ZM332.909 40.32V48H334.909V40.32H332.909ZM333.909 47H314.453V49H333.909V47ZM314.453 47C312.829 47 311.318 46.7036 309.91 46.1169L309.141 47.9631C310.805 48.6564 312.579 49 314.453 49V47ZM309.931 46.1262C308.496 45.4884 307.251 44.6562 306.187 43.6317L304.8 45.0723C306.04 46.2664 307.482 47.2263 309.119 47.9538L309.931 46.1262ZM306.214 43.6584C305.189 42.5944 304.357 41.349 303.719 39.9139L301.891 40.7261C302.619 42.363 303.579 43.8056 304.773 45.0456L306.214 43.6584ZM303.728 39.9354C303.142 38.5275 302.845 37.0162 302.845 35.392H300.845C300.845 37.2665 301.189 39.0405 301.882 40.7046L303.728 39.9354ZM302.845 35.392V15.04H300.845V35.392H302.845ZM301.845 16.04H309.525V14.04H301.845V16.04ZM308.525 15.04V22.784H310.525V15.04H308.525ZM368.549 48V49H369.549V48H368.549ZM343.525 47.04L343.119 47.9538L343.13 47.9586L343.141 47.9631L343.525 47.04ZM339.493 44.352L338.773 45.0456L338.786 45.0592L338.8 45.0723L339.493 44.352ZM336.805 40.32L335.882 40.7046L335.887 40.7154L335.891 40.7261L336.805 40.32ZM336.805 30.464L335.891 30.0579L335.887 30.0686L335.882 30.0794L336.805 30.464ZM339.493 26.496L338.786 25.7889L338.786 25.7889L339.493 26.496ZM343.525 23.808L343.91 24.7311L343.921 24.7266L343.931 24.7218L343.525 23.808ZM373.157 23.808L372.751 24.7218L372.762 24.7266L372.773 24.7311L373.157 23.808ZM377.125 26.496L376.405 27.1896L376.418 27.2032L376.432 27.2163L377.125 26.496ZM379.813 30.464L378.89 30.8486L378.895 30.8594L378.899 30.8701L379.813 30.464ZM380.837 48V49H381.837V48H380.837ZM373.157 48H372.157V49H373.157V48ZM371.685 31.936L370.963 32.6272L370.978 32.6433L370.994 32.6586L371.685 31.936ZM344.933 31.936L345.64 32.6431L344.933 31.936ZM344.933 38.912L344.211 39.6032L344.226 39.6193L344.242 39.6346L344.933 38.912ZM368.549 40.32H369.549V39.32H368.549V40.32ZM368.549 47H348.453V49H368.549V47ZM348.453 47C346.829 47 345.318 46.7036 343.91 46.1169L343.141 47.9631C344.805 48.6564 346.579 49 348.453 49V47ZM343.931 46.1262C342.496 45.4884 341.251 44.6562 340.187 43.6317L338.8 45.0723C340.04 46.2664 341.482 47.2263 343.119 47.9538L343.931 46.1262ZM340.214 43.6584C339.189 42.5944 338.357 41.349 337.719 39.9139L335.891 40.7261C336.619 42.363 337.579 43.8056 338.773 45.0456L340.214 43.6584ZM337.728 39.9354C337.142 38.5275 336.845 37.0162 336.845 35.392H334.845C334.845 37.2665 335.189 39.0405 335.882 40.7046L337.728 39.9354ZM336.845 35.392C336.845 33.7678 337.142 32.2565 337.728 30.8486L335.882 30.0794C335.189 31.7435 334.845 33.5175 334.845 35.392H336.845ZM337.719 30.8701C338.355 29.4382 339.184 28.2196 340.2 27.2031L338.786 25.7889C337.584 26.991 336.62 28.4178 335.891 30.0579L337.719 30.8701ZM340.2 27.2031C341.258 26.1455 342.492 25.3219 343.91 24.7311L343.141 22.8849C341.487 23.5741 340.033 24.5425 338.786 25.7889L340.2 27.2031ZM343.931 24.7218C345.334 24.0983 346.838 23.784 348.453 23.784V21.784C346.57 21.784 344.788 22.1524 343.119 22.8942L343.931 24.7218ZM348.453 23.784H368.229V21.784H348.453V23.784ZM368.229 23.784C369.845 23.784 371.348 24.0983 372.751 24.7218L373.563 22.8942C371.894 22.1524 370.113 21.784 368.229 21.784V23.784ZM372.773 24.7311C374.187 25.3206 375.394 26.1403 376.405 27.1896L377.846 25.8024C376.637 24.5477 375.199 23.5754 373.542 22.8849L372.773 24.7311ZM376.432 27.2163C377.481 28.2268 378.301 29.4338 378.89 30.8486L380.736 30.0794C380.046 28.4222 379.074 26.9839 377.819 25.7757L376.432 27.2163ZM378.899 30.8701C379.523 32.2731 379.837 33.7768 379.837 35.392H381.837C381.837 33.5086 381.469 31.7269 380.727 30.0579L378.899 30.8701ZM379.837 35.392V48H381.837V35.392H379.837ZM380.837 47H373.157V49H380.837V47ZM374.157 48V35.392H372.157V48H374.157ZM374.157 35.392C374.157 33.7554 373.556 32.3418 372.376 31.2134L370.994 32.6586C371.777 33.4075 372.157 34.2979 372.157 35.392H374.157ZM372.408 31.2448C371.279 30.065 369.866 29.464 368.229 29.464V31.464C369.323 31.464 370.214 31.8443 370.963 32.6272L372.408 31.2448ZM368.229 29.464H348.453V31.464H368.229V29.464ZM348.453 29.464C346.818 29.464 345.392 30.0635 344.226 31.2289L345.64 32.6431C346.438 31.8458 347.358 31.464 348.453 31.464V29.464ZM344.226 31.2289C343.094 32.361 342.525 33.7699 342.525 35.392H344.525C344.525 34.2834 344.895 33.3883 345.64 32.6431L344.226 31.2289ZM342.525 35.392C342.525 37.0133 343.093 38.4347 344.211 39.6032L345.656 38.2208C344.896 37.4267 344.525 36.5014 344.525 35.392H342.525ZM344.242 39.6346C345.411 40.7524 346.832 41.32 348.453 41.32V39.32C347.344 39.32 346.419 38.9489 345.624 38.1894L344.242 39.6346ZM348.453 41.32H368.549V39.32H348.453V41.32ZM367.549 40.32V48H369.549V40.32H367.549Z" fill="white"/>
<mask id="mask0_56_256" style="mask-type:luminance" maskUnits="userSpaceOnUse" x="0" y="8" width="48" height="45">
<path d="M47.1402 8.55225H0V52.2537H47.1402V8.55225Z" fill="white"/>
</mask>
<g mask="url(#mask0_56_256)">
<path d="M10.1301 16.1614V16.1613C10.1303 15.4429 10.0031 14.7326 9.75676 14.0716L10.1301 16.1614ZM10.1301 16.1614V40.9721C10.1161 42.4157 9.5913 43.7854 8.68359 44.7863C7.77699 45.7859 6.56512 46.335 5.31506 46.335C4.06497 46.335 2.85312 45.7859 1.94651 44.7863C1.03879 43.7854 0.514016 42.4157 0.5 40.9721V16.1614C0.500883 14.7073 1.0206 13.3226 1.93078 12.3096C2.83939 11.2984 4.05898 10.7426 5.3174 10.7432L5.31912 10.7432M10.1301 16.1614L5.31912 10.7432M5.31912 10.7432C6.10616 10.7409 6.8842 10.9589 7.58232 11.3818L7.58367 11.3826M5.31912 10.7432L7.58367 11.3826M7.58367 11.3826C7.59115 11.3875 7.60083 11.3935 7.61197 11.3999M7.58367 11.3826L7.61197 11.3999M7.61197 11.3999C7.62215 11.406 7.63259 11.4118 7.64328 11.4172C8.0292 11.6556 8.38428 11.9559 8.69676 12.3098L8.69674 12.3099L8.70014 12.3136C9.15057 12.8136 9.51039 13.4106 9.75675 14.0716L7.61197 11.3999ZM7.56944 11.373C7.56436 11.3696 7.56309 11.3685 7.56717 11.3714L7.56721 11.3714C7.5674 11.3716 7.56816 11.3721 7.56944 11.373Z" fill="#0075FF" stroke="white"/>
<path d="M21.9034 48.4209L21.9034 48.421C21.6574 49.0828 21.298 49.6809 20.8479 50.1823C20.398 50.6836 19.8668 51.078 19.2863 51.3459C18.7059 51.6137 18.0863 51.7506 17.4619 51.7506C16.8376 51.7506 16.2178 51.6137 15.6376 51.3459L15.4281 51.7999L15.6376 51.3459C15.057 51.078 14.5259 50.6836 14.0759 50.1823C13.6259 49.6808 13.2664 49.0828 13.0204 48.421L12.5517 48.5952L13.0204 48.4209C12.7743 47.7591 12.6472 47.0482 12.6472 46.3291V21.5225V21.5224C12.647 20.8029 12.7741 20.0915 13.0203 19.4293L13.0203 19.4292C13.2664 18.767 13.6261 18.1685 14.0764 17.6667C14.5267 17.1651 15.0582 16.7705 15.6391 16.5025L15.6391 16.5025C16.2198 16.2346 16.84 16.0977 17.4647 16.0978H17.4648C17.6322 16.0978 17.7981 16.1091 17.9649 16.1265L17.9907 16.1292H17.9978C19.1526 16.2771 20.2318 16.8923 21.0253 17.8771C21.8264 18.8714 22.2759 20.1697 22.2767 21.5228V46.3291C22.2767 47.0482 22.1495 47.7591 21.9034 48.4209Z" fill="#0075FF" stroke="white"/>
<path d="M34.4929 14.4702V14.4704V39.2835C34.4929 40.7377 33.9739 42.123 33.0641 43.1366C32.1559 44.1485 30.9365 44.705 29.6781 44.705C28.4197 44.705 27.2003 44.1485 26.2921 43.1366C25.3823 42.123 24.8633 40.7377 24.8633 39.2835V14.4704C24.8633 13.7513 24.9906 13.0403 25.2368 12.3785C25.4831 11.7167 25.8428 11.1187 26.2931 10.6175L26.2931 10.6175C26.7433 10.1164 27.2748 9.72242 27.8555 9.45501C28.4361 9.18771 29.056 9.05143 29.6804 9.05218V9.05222L29.6867 9.05215C29.8761 9.04998 30.0655 9.06477 30.2531 9.09644L30.2944 9.10342H30.3134C31.345 9.25059 32.3136 9.77735 33.0622 10.6148L33.0631 10.6158C33.5137 11.117 33.8736 11.7152 34.1198 12.3773L34.1198 12.3774C34.3661 13.0395 34.4932 13.7508 34.4929 14.4702Z" fill="#0075FF" stroke="white"/>
<path d="M37.3837 19.1468C37.6299 18.4846 37.9896 17.8861 38.4398 17.3844C38.89 16.8828 39.4216 16.4882 40.0025 16.2201C40.5832 15.9522 41.2033 15.8152 41.828 15.8153L41.8304 15.8153C42.4571 15.8124 43.0795 15.9524 43.6598 16.2286L43.7617 16.2771H43.7651C44.3007 16.5403 44.7909 16.9149 45.2086 17.3841L45.2086 17.3841L45.2111 17.3869C45.6626 17.8866 46.0232 18.4841 46.2695 19.1461C46.5157 19.808 46.6419 20.5194 46.64 21.2386V21.2399V46.0472C46.64 46.7663 46.5128 47.4772 46.2667 48.139L46.6763 48.2913L46.2667 48.1391C46.0207 48.8009 45.6612 49.3989 45.2112 49.9004C44.7613 50.4017 44.23 50.7961 43.6496 51.064C43.0692 51.3318 42.4495 51.4687 41.8252 51.4687C41.2009 51.4687 40.5811 51.3318 40.0009 51.064L39.7913 51.518L40.0008 51.064C39.4203 50.7961 38.8891 50.4017 38.4392 49.9004L38.4392 49.9004C37.9891 49.3989 37.6297 48.8009 37.3836 48.1391L36.9734 48.2916L37.3836 48.139C37.1376 47.4772 37.0104 46.7663 37.0104 46.0472V21.2399V21.2399C37.0103 20.5204 37.1375 19.8091 37.3837 19.1468ZM37.3837 19.1468L36.9151 18.9726L37.3837 19.1468Z" fill="#0075FF" stroke="white"/>
<g style="mix-blend-mode:multiply" opacity="0.3">
<mask id="path-8-inside-1_56_256" fill="white">
<path d="M10.6301 23.3029V40.9744C10.6156 42.5343 10.0491 44.0247 9.05396 45.122C8.05879 46.2194 6.71518 46.8349 5.31506 46.8349C3.91491 46.8349 2.57132 46.2194 1.57614 45.122C0.580951 44.0247 0.0145609 42.5343 0 40.9744V39.956C0 39.956 0.0114984 40.1027 0.0344936 40.3717C0.0459912 40.6471 0.0804838 41.0512 0.138547 41.5438C0.236487 42.1308 0.406524 42.7 0.643866 43.2354C1.06351 44.1863 1.71691 44.9849 2.52804 45.5383C3.33917 46.0916 4.27467 46.3769 5.22566 46.361C5.65695 46.356 6.08586 46.2893 6.5019 46.1625C7.38077 45.8868 8.17319 45.3433 8.78992 44.5932C9.42148 43.8301 9.83735 42.8766 9.98567 41.8519C9.99717 41.7238 10.0259 41.6213 10.0317 41.474L10.0552 41.0384C10.0662 40.8143 10.0604 40.4748 10.0662 40.1994C10.0662 39.6229 10.0719 39.0401 10.0777 38.47C10.0777 37.3235 10.1121 36.1962 10.1242 35.101C10.1639 32.9169 10.2271 30.8794 10.3019 29.1315C10.4404 25.6343 10.6301 23.3029 10.6301 23.3029Z"/>
</mask>
<path d="M10.6301 23.3029V40.9744C10.6156 42.5343 10.0491 44.0247 9.05396 45.122C8.05879 46.2194 6.71518 46.8349 5.31506 46.8349C3.91491 46.8349 2.57132 46.2194 1.57614 45.122C0.580951 44.0247 0.0145609 42.5343 0 40.9744V39.956C0 39.956 0.0114984 40.1027 0.0344936 40.3717C0.0459912 40.6471 0.0804838 41.0512 0.138547 41.5438C0.236487 42.1308 0.406524 42.7 0.643866 43.2354C1.06351 44.1863 1.71691 44.9849 2.52804 45.5383C3.33917 46.0916 4.27467 46.3769 5.22566 46.361C5.65695 46.356 6.08586 46.2893 6.5019 46.1625C7.38077 45.8868 8.17319 45.3433 8.78992 44.5932C9.42148 43.8301 9.83735 42.8766 9.98567 41.8519C9.99717 41.7238 10.0259 41.6213 10.0317 41.474L10.0552 41.0384C10.0662 40.8143 10.0604 40.4748 10.0662 40.1994C10.0662 39.6229 10.0719 39.0401 10.0777 38.47C10.0777 37.3235 10.1121 36.1962 10.1242 35.101C10.1639 32.9169 10.2271 30.8794 10.3019 29.1315C10.4404 25.6343 10.6301 23.3029 10.6301 23.3029Z" fill="#0075FF"/>
<path d="M10.6301 23.3029H11.6301L9.63341 23.2218L10.6301 23.3029ZM10.6301 40.9744L11.6301 40.9837V40.9744H10.6301ZM9.05396 45.122L8.31322 44.4502L8.3132 44.4503L9.05396 45.122ZM1.57614 45.122L2.31689 44.4503L2.31687 44.4502L1.57614 45.122ZM0 40.9744L-1.00004 40.9744L-0.999956 40.9837L0 40.9744ZM0 39.956L0.996941 39.8778L-1 39.956H0ZM0.0344936 40.3717L1.03362 40.33L1.03271 40.3082L1.03086 40.2865L0.0344936 40.3717ZM0.138547 41.5438L-0.854577 41.6609L-0.851768 41.6847L-0.847819 41.7084L0.138547 41.5438ZM0.643866 43.2354L1.55875 42.8316L1.55805 42.8301L0.643866 43.2354ZM2.52804 45.5383L1.96446 46.3643L1.9645 46.3644L2.52804 45.5383ZM5.22566 46.361L5.21408 45.3611L5.20896 45.3612L5.22566 46.361ZM6.5019 46.1625L6.79348 47.119L6.80118 47.1166L6.5019 46.1625ZM8.78992 44.5932L8.01951 43.9557L8.01749 43.9581L8.78992 44.5932ZM9.98567 41.8519L10.9754 41.9951L10.9792 41.9683L10.9817 41.9413L9.98567 41.8519ZM10.0317 41.474L9.03312 41.4199L9.03272 41.4275L9.03242 41.435L10.0317 41.474ZM10.0552 41.0384L11.0538 41.0925L11.054 41.0871L10.0552 41.0384ZM10.0662 40.1994L11.0659 40.2202L11.0662 40.2098V40.1994H10.0662ZM10.0777 38.47L11.0777 38.4801V38.47H10.0777ZM10.1242 35.101L9.12436 35.0828L9.12428 35.09L10.1242 35.101ZM10.3019 29.1315L11.3009 29.1742L11.3011 29.1711L10.3019 29.1315ZM9.63011 23.3029V40.9744H11.6301V23.3029H9.63011ZM9.63015 40.9651C9.61776 42.294 9.13443 43.5447 8.31322 44.4502L9.7947 45.7938C10.9638 44.5047 11.6134 42.7745 11.6301 40.9837L9.63015 40.9651ZM8.3132 44.4503C7.4952 45.3523 6.41508 45.8349 5.31506 45.8349V47.8349C7.01527 47.8349 8.62238 47.0865 9.79472 45.7938L8.3132 44.4503ZM5.31506 45.8349C4.21501 45.8349 3.13491 45.3523 2.31689 44.4503L0.835381 45.7938C2.00773 47.0865 3.61481 47.8349 5.31506 47.8349V45.8349ZM2.31687 44.4502C1.49567 43.5448 1.01236 42.294 0.999956 40.9651L-0.999956 40.9837C-0.98324 42.7745 -0.333766 44.5047 0.835403 45.7938L2.31687 44.4502ZM1 40.9744V39.956H-1V40.9744H1ZM0 39.956C-0.996941 40.0341 -0.996941 40.0341 -0.99694 40.0342C-0.99694 40.0342 -0.996939 40.0342 -0.996939 40.0342C-0.996938 40.0342 -0.996937 40.0342 -0.996935 40.0342C-0.996932 40.0343 -0.996929 40.0343 -0.996925 40.0343C-0.996917 40.0345 -0.996906 40.0346 -0.996892 40.0348C-0.996864 40.0351 -0.996825 40.0356 -0.996775 40.0363C-0.996674 40.0375 -0.996529 40.0394 -0.996338 40.0418C-0.995957 40.0466 -0.995396 40.0536 -0.994655 40.0629C-0.993173 40.0814 -0.990971 40.1087 -0.988049 40.1445C-0.982204 40.2159 -0.973479 40.3211 -0.961873 40.4568L1.03086 40.2865C1.01947 40.1533 1.01095 40.0506 1.0053 39.9814C1.00247 39.9469 1.00036 39.9207 0.998967 39.9033C0.998271 39.8946 0.997754 39.8881 0.997416 39.8838C0.997247 39.8817 0.997123 39.8801 0.997044 39.8791C0.997005 39.8786 0.996976 39.8783 0.996959 39.8781C0.996951 39.8779 0.996945 39.8779 0.996942 39.8778C0.99694 39.8778 0.996939 39.8778 0.996939 39.8778C0.996939 39.8778 0.99694 39.8778 0.99694 39.8778C0.99694 39.8778 0.99694 39.8778 0.99694 39.8778C0.996941 39.8778 0.996941 39.8778 0 39.956ZM-0.964636 40.4134C-0.951683 40.7237 -0.914183 41.1552 -0.854577 41.6609L1.13167 41.4267C1.07515 40.9473 1.04367 40.5705 1.03362 40.33L-0.964636 40.4134ZM-0.847819 41.7084C-0.736265 42.377 -0.542305 43.0272 -0.270315 43.6407L1.55805 42.8301C1.35535 42.3729 1.20924 41.8847 1.12491 41.3792L-0.847819 41.7084ZM-0.271016 43.6391C0.2194 44.7504 0.989952 45.6995 1.96446 46.3643L3.09162 44.7122C2.44388 44.2703 1.90761 43.6222 1.55875 42.8316L-0.271016 43.6391ZM1.9645 46.3644C2.94057 47.0302 4.07766 47.3803 5.24236 47.3609L5.20896 45.3612C4.47168 45.3735 3.73777 45.153 3.09158 44.7122L1.9645 46.3644ZM5.23725 47.3609C5.76428 47.3548 6.28743 47.2733 6.79348 47.119L6.21032 45.2059C5.88428 45.3053 5.54962 45.3572 5.21408 45.3611L5.23725 47.3609ZM6.80118 47.1166C7.87571 46.7796 8.82928 46.1199 9.56235 45.2283L8.01749 43.9581C7.5171 44.5667 6.88583 44.994 6.20261 45.2083L6.80118 47.1166ZM9.56032 45.2308C10.3144 44.3195 10.802 43.193 10.9754 41.9951L8.99598 41.7086C8.87273 42.5602 8.52854 43.3406 8.01952 43.9557L9.56032 45.2308ZM10.9817 41.9413C10.9837 41.9189 10.9861 41.9062 10.9989 41.8239C11.0102 41.7512 11.0258 41.6442 11.0309 41.513L9.03242 41.435C9.03179 41.4511 9.03008 41.469 9.02271 41.5164C9.01683 41.5542 8.99916 41.6568 8.98968 41.7625L10.9817 41.9413ZM11.0302 41.528L11.0538 41.0925L9.05669 40.9844L9.03312 41.4199L11.0302 41.528ZM11.054 41.0871C11.0652 40.8574 11.0618 40.4202 11.0659 40.2202L9.06637 40.1785C9.05905 40.5294 9.06707 40.7711 9.05642 40.9898L11.054 41.0871ZM11.0662 40.1994C11.0662 39.6287 11.0718 39.0508 11.0776 38.4801L9.0777 38.4599C9.07196 39.0294 9.06615 39.6171 9.06615 40.1994H11.0662ZM11.0777 38.47C11.0777 37.3249 11.1117 36.2392 11.1242 35.112L9.12428 35.09C9.11256 36.1533 9.07765 37.3221 9.07765 38.47H11.0777ZM11.1241 35.1191C11.1636 32.9427 11.2266 30.9135 11.3009 29.1742L9.30277 29.0888C9.22766 30.8454 9.16419 32.891 9.12438 35.0828L11.1241 35.1191ZM11.3011 29.1711C11.37 27.4316 11.4516 25.9825 11.5159 24.9691C11.5481 24.4625 11.5759 24.065 11.5956 23.7947C11.6055 23.6595 11.6134 23.5562 11.6187 23.487C11.6214 23.4524 11.6234 23.4264 11.6248 23.4091C11.6255 23.4005 11.626 23.394 11.6263 23.3898C11.6265 23.3877 11.6266 23.3862 11.6267 23.3852C11.6268 23.3848 11.6268 23.3844 11.6268 23.3842C11.6268 23.3841 11.6268 23.384 11.6268 23.384C11.6268 23.384 11.6268 23.384 11.6268 23.384C11.6268 23.384 11.6268 23.384 10.6301 23.3029C9.63341 23.2218 9.6334 23.2219 9.6334 23.2219C9.6334 23.2219 9.63339 23.222 9.63339 23.222C9.63338 23.2222 9.63337 23.2223 9.63335 23.2225C9.63332 23.2228 9.63328 23.2234 9.63323 23.224C9.63312 23.2253 9.63297 23.2272 9.63278 23.2296C9.63239 23.2344 9.63182 23.2415 9.63108 23.2508C9.62961 23.2694 9.62745 23.2968 9.62467 23.3328C9.6191 23.4048 9.61104 23.5109 9.60096 23.649C9.5808 23.9252 9.55253 24.329 9.51995 24.8424C9.45478 25.8691 9.37227 27.3342 9.30264 29.0919L11.3011 29.1711Z" fill="white" mask="url(#path-8-inside-1_56_256)"/>
</g>
<g style="mix-blend-mode:overlay" opacity="0.6">
<mask id="path-10-inside-2_56_256" fill="white">
<path d="M7.86494 10.9669C7.66505 10.8943 7.4616 10.8344 7.25557 10.7876C6.72443 10.6504 6.17904 10.5944 5.6344 10.621C5.46312 10.6282 5.29242 10.6474 5.12333 10.6787C4.94523 10.7031 4.76861 10.7394 4.59444 10.7876C3.40852 11.0864 2.35085 11.8304 1.59874 12.8948C1.33656 13.2528 1.11634 13.6464 0.943379 14.0663C0.778256 14.4728 0.652978 14.898 0.569707 15.3345C0.527417 15.5566 0.496513 15.7811 0.47715 16.007L0.459904 16.18C0.459904 16.1864 0.454155 16.2824 0.448406 16.3273C0.442657 16.4426 0.43691 16.5579 0.425987 16.6667C0.402417 17.1151 0.362175 17.5378 0.327682 17.9285C0.257637 18.8009 0.148272 19.6688 0 20.529V16.1607C0.00106145 15.1334 0.241873 14.124 0.698796 13.2317C1.15572 12.3394 1.81305 11.5948 2.60626 11.0709C3.39947 10.5471 4.30131 10.2621 5.22325 10.2439C6.14518 10.2256 7.05551 10.4748 7.86494 10.9669Z"/>
</mask>
<path d="M7.86494 10.9669C7.66505 10.8943 7.4616 10.8344 7.25557 10.7876C6.72443 10.6504 6.17904 10.5944 5.6344 10.621C5.46312 10.6282 5.29242 10.6474 5.12333 10.6787C4.94523 10.7031 4.76861 10.7394 4.59444 10.7876C3.40852 11.0864 2.35085 11.8304 1.59874 12.8948C1.33656 13.2528 1.11634 13.6464 0.943379 14.0663C0.778256 14.4728 0.652978 14.898 0.569707 15.3345C0.527417 15.5566 0.496513 15.7811 0.47715 16.007L0.459904 16.18C0.459904 16.1864 0.454155 16.2824 0.448406 16.3273C0.442657 16.4426 0.43691 16.5579 0.425987 16.6667C0.402417 17.1151 0.362175 17.5378 0.327682 17.9285C0.257637 18.8009 0.148272 19.6688 0 20.529V16.1607C0.00106145 15.1334 0.241873 14.124 0.698796 13.2317C1.15572 12.3394 1.81305 11.5948 2.60626 11.0709C3.39947 10.5471 4.30131 10.2621 5.22325 10.2439C6.14518 10.2256 7.05551 10.4748 7.86494 10.9669Z" fill="#0075FF"/>
<path d="M7.86494 10.9669L7.52357 11.9068L8.38444 10.1124L7.86494 10.9669ZM7.25557 10.7876L7.00552 11.7558L7.01958 11.7594L7.03374 11.7627L7.25557 10.7876ZM5.6344 10.621L5.67595 11.6202L5.68329 11.6198L5.6344 10.621ZM5.12333 10.6787L5.25901 11.6694L5.28218 11.6663L5.30518 11.662L5.12333 10.6787ZM4.59444 10.7876L4.8388 11.7573L4.84985 11.7545L4.86083 11.7514L4.59444 10.7876ZM1.59874 12.8948L2.40547 13.4858L2.41051 13.4789L2.41544 13.4719L1.59874 12.8948ZM0.943379 14.0663L0.0187366 13.6854L0.0168872 13.69L0.943379 14.0663ZM0.569707 15.3345L-0.412576 15.1471L-0.412637 15.1474L0.569707 15.3345ZM0.47715 16.007L1.47231 16.1063L1.4735 16.0924L0.47715 16.007ZM0.459904 16.18L-0.535161 16.0807L-0.540096 16.1302V16.18H0.459904ZM0.448406 16.3273L-0.543474 16.2001L-0.548417 16.2387L-0.550353 16.2775L0.448406 16.3273ZM0.425987 16.6667L-0.569019 16.5669L-0.571388 16.5905L-0.572634 16.6142L0.425987 16.6667ZM0.327682 17.9285L-0.668475 17.8406L-0.66911 17.8485L0.327682 17.9285ZM0 20.529H-1L0.985465 20.6989L0 20.529ZM0 16.1607L-1 16.1597V16.1607H0ZM0.698796 13.2317L-0.191299 12.7759L-0.191299 12.7759L0.698796 13.2317ZM8.2063 10.027C7.96758 9.94028 7.72422 9.86863 7.47739 9.81248L7.03374 11.7627C7.19899 11.8002 7.36252 11.8484 7.52357 11.9068L8.2063 10.027ZM7.50561 9.81934C6.87754 9.65714 6.23138 9.59062 5.58552 9.62223L5.68329 11.6198C6.1267 11.5981 6.57133 11.6437 7.00552 11.7558L7.50561 9.81934ZM5.59285 9.6219C5.37435 9.63099 5.15677 9.65554 4.94148 9.69536L5.30518 11.662C5.42807 11.6393 5.55189 11.6253 5.67595 11.6202L5.59285 9.6219ZM4.98766 9.68793C4.76521 9.71839 4.54493 9.76377 4.32806 9.8237L4.86083 11.7514C4.99229 11.7151 5.12525 11.6878 5.25901 11.6694L4.98766 9.68793ZM4.35008 9.81789C2.91667 10.1791 1.66214 11.0722 0.782049 12.3178L2.41544 13.4719C3.03956 12.5886 3.90037 11.9937 4.8388 11.7573L4.35008 9.81789ZM0.792017 12.3039C0.481093 12.7284 0.221672 13.1928 0.0187478 13.6854L1.86801 14.4472C2.011 14.1 2.19202 13.7771 2.40547 13.4858L0.792017 12.3039ZM0.0168872 13.69C-0.173321 14.1583 -0.317129 14.6468 -0.412576 15.1471L1.55199 15.5219C1.62308 15.1493 1.72983 14.7874 1.86987 14.4426L0.0168872 13.69ZM-0.412637 15.1474C-0.461349 15.4032 -0.496919 15.6616 -0.519199 15.9216L1.4735 16.0924C1.48994 15.9005 1.51618 15.7099 1.55205 15.5216L-0.412637 15.1474ZM-0.517915 15.9078L-0.535161 16.0807L1.45497 16.2792L1.47221 16.1063L-0.517915 15.9078ZM-0.540096 16.18C-0.540096 16.1715 -0.539985 16.1647 -0.539912 16.1609C-0.539831 16.1567 -0.539738 16.1533 -0.539669 16.151C-0.539535 16.1465 -0.5394 16.1431 -0.539331 16.1414C-0.539191 16.138 -0.53908 16.1358 -0.539076 16.1357C-0.539053 16.1353 -0.539124 16.1367 -0.539332 16.1402C-0.539734 16.147 -0.540382 16.1572 -0.541188 16.1685C-0.542007 16.1801 -0.542839 16.1908 -0.543572 16.1992C-0.543932 16.2033 -0.544176 16.2058 -0.544281 16.2068C-0.544427 16.2082 -0.54418 16.2056 -0.543474 16.2001L1.44029 16.4545C1.45019 16.3772 1.4599 16.2377 1.4599 16.18H-0.540096ZM-0.550353 16.2775C-0.556361 16.398 -0.56105 16.4875 -0.569019 16.5669L1.42099 16.7666C1.43487 16.6282 1.44168 16.4872 1.44717 16.3771L-0.550353 16.2775ZM-0.572634 16.6142C-0.595031 17.0403 -0.633154 17.4409 -0.668444 17.8406L1.32381 18.0165C1.3575 17.6348 1.39986 17.1899 1.42461 16.7192L-0.572634 16.6142ZM-0.66911 17.8485C-0.736745 18.6908 -0.842338 19.5288 -0.985465 20.3591L0.985465 20.6989C1.13888 19.8089 1.25202 18.911 1.32447 18.0086L-0.66911 17.8485ZM1 20.529V16.1607H-1V20.529H1ZM0.999999 16.1618C1.0009 15.2885 1.20587 14.4355 1.58889 13.6875L-0.191299 12.7759C-0.722124 13.8126 -0.998779 14.9783 -0.999999 16.1597L0.999999 16.1618ZM1.58889 13.6875C1.97175 12.9398 2.51578 12.3291 3.15732 11.9054L2.0552 10.2365C1.11031 10.8604 0.339682 11.739 -0.191299 12.7759L1.58889 13.6875ZM3.15732 11.9054C3.79779 11.4824 4.51632 11.258 5.24302 11.2437L5.20347 9.24405C4.08631 9.26615 3.00116 9.61177 2.0552 10.2365L3.15732 11.9054ZM5.24302 11.2437C5.96964 11.2293 6.69363 11.4251 7.34543 11.8214L8.38444 10.1124C7.41739 9.52449 6.32073 9.22195 5.20347 9.24405L5.24302 11.2437Z" fill="white" mask="url(#path-10-inside-2_56_256)"/>
</g>
<g style="mix-blend-mode:multiply" opacity="0.3">
<mask id="path-12-inside-3_56_256" fill="white">
<path d="M22.7767 28.6377V46.329C22.7767 47.1067 22.6392 47.8766 22.3721 48.5951C22.105 49.3135 21.7136 49.9662 21.22 50.5161C20.7265 51.066 20.1406 51.5021 19.4958 51.7997C18.851 52.0973 18.1599 52.2505 17.4619 52.2505C16.764 52.2505 16.0728 52.0973 15.4281 51.7997C14.7832 51.5021 14.1974 51.066 13.7038 50.5161C13.2103 49.9662 12.8188 49.3135 12.5517 48.5951C12.2846 47.8766 12.1472 47.1067 12.1472 46.329V45.6117C12.1472 45.6117 12.1587 45.759 12.1816 46.0273C12.202 46.4153 12.2501 46.8008 12.3254 47.1802C12.585 48.4991 13.2449 49.6779 14.1937 50.5179C14.8086 51.0573 15.5265 51.432 16.292 51.6132C16.4877 51.6572 16.6854 51.6893 16.8842 51.7092C17.1023 51.726 17.321 51.7302 17.5395 51.722C17.9726 51.6956 18.4012 51.6115 18.8163 51.4716C19.6762 51.1574 20.4431 50.5884 21.0348 49.8255C21.6417 49.0497 22.0296 48.0917 22.1501 47.0714C22.184 46.8082 22.2032 46.5429 22.2076 46.2771L22.2133 45.4118C22.2133 44.8354 22.2191 44.2589 22.2254 43.6895C22.2254 42.5558 22.2593 41.4349 22.2714 40.3461C22.311 38.1805 22.3743 36.1572 22.449 34.4214C22.587 30.9506 22.7767 28.6377 22.7767 28.6377Z"/>
</mask>
<path d="M22.7767 28.6377V46.329C22.7767 47.1067 22.6392 47.8766 22.3721 48.5951C22.105 49.3135 21.7136 49.9662 21.22 50.5161C20.7265 51.066 20.1406 51.5021 19.4958 51.7997C18.851 52.0973 18.1599 52.2505 17.4619 52.2505C16.764 52.2505 16.0728 52.0973 15.4281 51.7997C14.7832 51.5021 14.1974 51.066 13.7038 50.5161C13.2103 49.9662 12.8188 49.3135 12.5517 48.5951C12.2846 47.8766 12.1472 47.1067 12.1472 46.329V45.6117C12.1472 45.6117 12.1587 45.759 12.1816 46.0273C12.202 46.4153 12.2501 46.8008 12.3254 47.1802C12.585 48.4991 13.2449 49.6779 14.1937 50.5179C14.8086 51.0573 15.5265 51.432 16.292 51.6132C16.4877 51.6572 16.6854 51.6893 16.8842 51.7092C17.1023 51.726 17.321 51.7302 17.5395 51.722C17.9726 51.6956 18.4012 51.6115 18.8163 51.4716C19.6762 51.1574 20.4431 50.5884 21.0348 49.8255C21.6417 49.0497 22.0296 48.0917 22.1501 47.0714C22.184 46.8082 22.2032 46.5429 22.2076 46.2771L22.2133 45.4118C22.2133 44.8354 22.2191 44.2589 22.2254 43.6895C22.2254 42.5558 22.2593 41.4349 22.2714 40.3461C22.311 38.1805 22.3743 36.1572 22.449 34.4214C22.587 30.9506 22.7767 28.6377 22.7767 28.6377Z" fill="#0075FF"/>
<path d="M22.7767 28.6377H23.7767L21.78 28.5559L22.7767 28.6377ZM22.3721 48.5951L21.4348 48.2465L21.4348 48.2466L22.3721 48.5951ZM19.4958 51.7997L19.9148 52.7077L19.9149 52.7077L19.4958 51.7997ZM15.4281 51.7997L15.009 52.7077L15.009 52.7077L15.4281 51.7997ZM12.1472 45.6117L13.1441 45.5338L11.1472 45.6117H12.1472ZM12.1816 46.0273L13.1803 45.975L13.1794 45.9584L13.178 45.942L12.1816 46.0273ZM12.3254 47.1802L13.3065 46.9871L13.3062 46.9856L12.3254 47.1802ZM14.1937 50.5179L13.5309 51.2667L13.5342 51.2696L14.1937 50.5179ZM16.292 51.6132L16.0618 52.5863L16.0723 52.5887L16.292 51.6132ZM16.8842 51.7092L16.7845 52.7043L16.7961 52.7054L16.8077 52.7063L16.8842 51.7092ZM17.5395 51.722L17.577 52.7213L17.5888 52.7209L17.6005 52.7202L17.5395 51.722ZM18.8163 51.4716L19.1357 52.4193L19.1477 52.4152L19.1596 52.4109L18.8163 51.4716ZM21.0348 49.8255L20.2471 49.2094L20.2447 49.2126L21.0348 49.8255ZM22.1501 47.0714L21.1582 46.9435L21.157 46.9541L22.1501 47.0714ZM22.2076 46.2771L23.2075 46.2936L23.2075 46.2838L22.2076 46.2771ZM22.2133 45.4118L23.2133 45.4185V45.4118H22.2133ZM22.2254 43.6895L23.2254 43.7006V43.6895H22.2254ZM22.2714 40.3461L21.2715 40.3278L21.2714 40.335L22.2714 40.3461ZM22.449 34.4214L23.4481 34.4645L23.4482 34.4612L22.449 34.4214ZM21.7767 28.6377V46.329H23.7767V28.6377H21.7767ZM21.7767 46.329C21.7767 46.9895 21.6599 47.6413 21.4348 48.2465L23.3094 48.9436C23.6186 48.1119 23.7767 47.2238 23.7767 46.329H21.7767ZM21.4348 48.2466C21.2098 48.8519 20.8824 49.3952 20.4758 49.8482L21.9642 51.1841C22.5448 50.5373 23.0002 49.7752 23.3094 48.9435L21.4348 48.2466ZM20.4758 49.8482C20.0695 50.3009 19.593 50.6535 19.0767 50.8918L19.9149 52.7077C20.6882 52.3507 21.3835 51.8311 21.9642 51.1841L20.4758 49.8482ZM19.0768 50.8918C18.5609 51.1298 18.0126 51.2505 17.4619 51.2505V53.2505C18.3072 53.2505 19.141 53.0648 19.9148 52.7077L19.0768 50.8918ZM17.4619 51.2505C16.9112 51.2505 16.3628 51.1298 15.8471 50.8918L15.009 52.7077C15.7828 53.0648 16.6167 53.2505 17.4619 53.2505V51.2505ZM15.8471 50.8918C15.3308 50.6535 14.8544 50.3009 14.448 49.8482L12.9596 51.1841C13.5403 51.8311 14.2356 52.3507 15.009 52.7077L15.8471 50.8918ZM14.448 49.8482C14.0415 49.3952 13.714 48.8518 13.489 48.2466L11.6144 48.9435C11.9236 49.7752 12.3791 50.5373 12.9596 51.1841L14.448 49.8482ZM13.489 48.2466C13.264 47.6413 13.1472 46.9895 13.1472 46.329H11.1472C11.1472 47.2238 11.3052 48.1119 11.6144 48.9435L13.489 48.2466ZM13.1472 46.329V45.6117H11.1472V46.329H13.1472ZM12.1472 45.6117C11.1502 45.6895 11.1502 45.6895 11.1502 45.6895C11.1502 45.6895 11.1502 45.6895 11.1502 45.6895C11.1502 45.6895 11.1502 45.6895 11.1502 45.6895C11.1502 45.6896 11.1502 45.6896 11.1502 45.6897C11.1502 45.6898 11.1502 45.6899 11.1502 45.6901C11.1503 45.6905 11.1503 45.691 11.1504 45.6916C11.1505 45.6929 11.1506 45.6948 11.1508 45.6972C11.1512 45.702 11.1517 45.7091 11.1525 45.7184C11.154 45.737 11.1562 45.7645 11.1591 45.8003C11.1649 45.8719 11.1737 45.9771 11.1853 46.1127L13.178 45.942C13.1666 45.8092 13.1581 45.7066 13.1525 45.6374C13.1496 45.6029 13.1475 45.5767 13.1461 45.5593C13.1454 45.5506 13.1449 45.5441 13.1446 45.5398C13.1444 45.5377 13.1443 45.5361 13.1442 45.5351C13.1442 45.5346 13.1442 45.5343 13.1441 45.5341C13.1441 45.534 13.1441 45.5339 13.1441 45.5338C13.1441 45.5338 13.1441 45.5338 13.1441 45.5338C13.1441 45.5338 13.1441 45.5338 13.1441 45.5338C13.1441 45.5338 13.1441 45.5338 13.1441 45.5338C13.1441 45.5338 13.1441 45.5338 12.1472 45.6117ZM11.183 46.0797C11.2059 46.5153 11.2598 46.9483 11.3445 47.3749L13.3062 46.9856C13.2403 46.6533 13.1981 46.3153 13.1803 45.975L11.183 46.0797ZM11.3442 47.3734C11.6434 48.8934 12.4076 50.2723 13.5309 51.2667L14.8566 49.7691C14.0822 49.0836 13.5266 48.1048 13.3065 46.9871L11.3442 47.3734ZM13.5342 51.2696C14.2669 51.9124 15.1308 52.366 16.0618 52.5863L16.5223 50.64C15.9221 50.498 15.3502 50.2023 14.8532 49.7662L13.5342 51.2696ZM16.0723 52.5887C16.3073 52.6417 16.5451 52.6803 16.7845 52.7043L16.9839 50.7142C16.8257 50.6984 16.668 50.6728 16.5118 50.6376L16.0723 52.5887ZM16.8077 52.7063C17.0637 52.7259 17.3204 52.731 17.577 52.7213L17.502 50.7228C17.3216 50.7295 17.1409 50.726 16.9606 50.7122L16.8077 52.7063ZM17.6005 52.7202C18.1224 52.6883 18.6379 52.587 19.1357 52.4193L18.497 50.524C18.1645 50.636 17.8227 50.7029 17.4786 50.7239L17.6005 52.7202ZM19.1596 52.4109C20.206 52.0285 21.1245 51.3414 21.825 50.4384L20.2447 49.2126C19.7617 49.8353 19.1464 50.2863 18.4731 50.5324L19.1596 52.4109ZM21.8225 50.4416C22.5472 49.5151 23.0022 48.3827 23.1432 47.1886L21.157 46.9541C21.057 47.8006 20.7361 48.5842 20.2471 49.2094L21.8225 50.4416ZM23.1419 47.1992C23.1806 46.899 23.2024 46.5966 23.2074 46.2936L21.2077 46.2607C21.2039 46.4893 21.1874 46.7174 21.1583 46.9435L23.1419 47.1992ZM23.2075 46.2838L23.2133 45.4185L21.2133 45.4052L21.2076 46.2705L23.2075 46.2838ZM23.2133 45.4118C23.2133 44.8414 23.219 44.2698 23.2253 43.7006L21.2254 43.6784C21.2191 44.248 21.2133 44.8293 21.2133 45.4118H23.2133ZM23.2254 43.6895C23.2254 42.5576 23.2589 41.4772 23.2713 40.3572L21.2714 40.335C21.2597 41.3927 21.2254 42.554 21.2254 43.6895H23.2254ZM23.2712 40.3644C23.3107 38.2066 23.3737 36.1915 23.4481 34.4644L21.4499 34.3784C21.3748 36.1229 21.3113 38.1545 21.2715 40.3278L23.2712 40.3644ZM23.4482 34.4612C23.5168 32.7349 23.5983 31.2971 23.6626 30.2918C23.6947 29.7891 23.7225 29.3948 23.7422 29.1267C23.7521 28.9926 23.7599 28.8902 23.7653 28.8216C23.7679 28.7872 23.77 28.7614 23.7713 28.7443C23.772 28.7357 23.7725 28.7293 23.7729 28.7252C23.773 28.7231 23.7732 28.7216 23.7732 28.7206C23.7733 28.7202 23.7733 28.7198 23.7733 28.7196C23.7733 28.7195 23.7733 28.7195 23.7733 28.7194C23.7734 28.7194 23.7733 28.7194 23.7734 28.7194C23.7733 28.7194 23.7733 28.7194 22.7767 28.6377C21.78 28.5559 21.78 28.556 21.78 28.556C21.78 28.5561 21.78 28.5561 21.78 28.5562C21.78 28.5563 21.78 28.5564 21.78 28.5566C21.78 28.557 21.7799 28.5575 21.7799 28.5581C21.7798 28.5594 21.7796 28.5613 21.7794 28.5637C21.779 28.5685 21.7785 28.5755 21.7777 28.5848C21.7762 28.6032 21.7741 28.6305 21.7713 28.6662C21.7657 28.7376 21.7577 28.8429 21.7476 28.9799C21.7274 29.254 21.6992 29.6548 21.6666 30.1642C21.6015 31.183 21.5192 32.6371 21.4498 34.3817L23.4482 34.4612Z" fill="white" mask="url(#path-12-inside-3_56_256)"/>
</g>
<g style="mix-blend-mode:overlay" opacity="0.6">
<mask id="path-14-inside-4_56_256" fill="white">
<path d="M18.0167 15.6292C17.9649 15.6427 17.7637 15.6747 17.4476 15.7259C17.2693 15.7772 17.0515 15.8156 16.8152 15.8925C16.5514 15.9782 16.2923 16.0807 16.0391 16.1993C15.7485 16.3424 15.468 16.5097 15.1998 16.6995C14.9101 16.9132 14.6354 17.1509 14.3777 17.4105C14.1146 17.6947 13.8759 18.0056 13.6648 18.3392C13.4476 18.6776 13.2626 19.0404 13.113 19.4216C12.9672 19.8034 12.8556 20.2003 12.7801 20.6066C12.7415 20.8097 12.7126 21.015 12.6933 21.2215L12.6645 21.5283L12.6531 21.862C12.6128 22.7394 12.5496 23.5586 12.4748 24.2638C12.4048 25.0536 12.2954 25.8383 12.1472 26.6145V21.5225C12.147 20.7444 12.2844 19.9739 12.5516 19.255C12.8188 18.5361 13.2105 17.883 13.7043 17.3328C14.1982 16.7826 14.7844 16.3461 15.4296 16.0485C16.0749 15.7508 16.7664 15.5976 17.4648 15.5978C17.6545 15.5978 17.8385 15.6106 18.0167 15.6292Z"/>
</mask>
<path d="M18.0167 15.6292C17.9649 15.6427 17.7637 15.6747 17.4476 15.7259C17.2693 15.7772 17.0515 15.8156 16.8152 15.8925C16.5514 15.9782 16.2923 16.0807 16.0391 16.1993C15.7485 16.3424 15.468 16.5097 15.1998 16.6995C14.9101 16.9132 14.6354 17.1509 14.3777 17.4105C14.1146 17.6947 13.8759 18.0056 13.6648 18.3392C13.4476 18.6776 13.2626 19.0404 13.113 19.4216C12.9672 19.8034 12.8556 20.2003 12.7801 20.6066C12.7415 20.8097 12.7126 21.015 12.6933 21.2215L12.6645 21.5283L12.6531 21.862C12.6128 22.7394 12.5496 23.5586 12.4748 24.2638C12.4048 25.0536 12.2954 25.8383 12.1472 26.6145V21.5225C12.147 20.7444 12.2844 19.9739 12.5516 19.255C12.8188 18.5361 13.2105 17.883 13.7043 17.3328C14.1982 16.7826 14.7844 16.3461 15.4296 16.0485C16.0749 15.7508 16.7664 15.5976 17.4648 15.5978C17.6545 15.5978 17.8385 15.6106 18.0167 15.6292Z" fill="#0075FF"/>
<path d="M18.0167 15.6292L18.2683 16.5971L18.1203 14.6346L18.0167 15.6292ZM17.4476 15.7259L17.2876 14.7388L17.2286 14.7484L17.1712 14.7649L17.4476 15.7259ZM16.8152 15.8925L17.1244 16.8435L17.1245 16.8434L16.8152 15.8925ZM16.0391 16.1993L15.6149 15.2937L15.606 15.2979L15.5972 15.3022L16.0391 16.1993ZM15.1998 16.6995L14.622 15.8833L14.6139 15.889L14.606 15.8949L15.1998 16.6995ZM14.3777 17.4105L13.6679 16.706L13.6557 16.7184L13.6438 16.7312L14.3777 17.4105ZM13.6648 18.3392L14.5064 18.8794L14.5099 18.8739L13.6648 18.3392ZM13.113 19.4216L12.1821 19.0562L12.1788 19.0649L13.113 19.4216ZM12.7801 20.6066L13.7625 20.7932L13.7632 20.7894L12.7801 20.6066ZM12.6933 21.2215L13.6889 21.3147L13.689 21.3143L12.6933 21.2215ZM12.6645 21.5283L11.6689 21.435L11.6662 21.4643L11.6651 21.4938L12.6645 21.5283ZM12.6531 21.862L13.6521 21.9078L13.6525 21.8964L12.6531 21.862ZM12.4748 24.2638L11.4804 24.1585L11.4795 24.167L11.4787 24.1755L12.4748 24.2638ZM12.1472 26.6145H11.1472L13.1294 26.8021L12.1472 26.6145ZM12.1472 21.5225L13.1472 21.5225L13.1472 21.5223L12.1472 21.5225ZM12.5516 19.255L13.489 19.6035L13.489 19.6034L12.5516 19.255ZM15.4296 16.0485L15.8485 16.9565L15.8486 16.9565L15.4296 16.0485ZM17.4648 15.5978L17.4645 16.5978H17.4648V15.5978ZM17.7651 14.6614C17.792 14.6544 17.8031 14.6531 17.7702 14.6592C17.7468 14.6635 17.7129 14.6693 17.6664 14.6771C17.5734 14.6926 17.448 14.7128 17.2876 14.7388L17.6075 16.7131C17.8747 16.6698 18.1564 16.6261 18.2683 16.5971L17.7651 14.6614ZM17.1712 14.7649C17.1097 14.7826 17.0458 14.7968 16.9188 14.8274C16.8056 14.8547 16.6618 14.8908 16.5058 14.9415L17.1245 16.8434C17.2049 16.8173 17.2881 16.7957 17.3875 16.7718C17.473 16.7511 17.6072 16.7205 17.7239 16.687L17.1712 14.7649ZM16.506 14.9415C16.2027 15.0401 15.9052 15.1577 15.6149 15.2937L16.4633 17.1048C16.6795 17.0036 16.9002 16.9164 17.1244 16.8435L16.506 14.9415ZM15.5972 15.3022C15.2585 15.4691 14.9326 15.6635 14.622 15.8833L15.7776 17.5157C16.0033 17.3559 16.2385 17.2158 16.481 17.0963L15.5972 15.3022ZM14.606 15.8949C14.2746 16.1395 13.9611 16.4107 13.6679 16.706L15.0874 18.1149C15.3096 17.8911 15.5457 17.687 15.7936 17.5041L14.606 15.8949ZM13.6438 16.7312C13.3387 17.0608 13.0629 17.4203 12.8198 17.8045L14.5099 18.8739C14.689 18.5908 14.8906 18.3285 15.1115 18.0898L13.6438 16.7312ZM12.8233 17.799C12.57 18.1936 12.3553 18.615 12.1821 19.0563L14.0438 19.787C14.1699 19.4658 14.3252 19.1617 14.5064 18.8794L12.8233 17.799ZM12.1788 19.0649C12.0112 19.5036 11.8834 19.9588 11.7969 20.4238L13.7632 20.7894C13.8279 20.4418 13.9231 20.1032 14.0471 19.7784L12.1788 19.0649ZM11.7977 20.42C11.7532 20.6542 11.7198 20.8908 11.6976 21.1286L13.689 21.3143C13.7053 21.1391 13.7299 20.9651 13.7625 20.7932L11.7977 20.42ZM11.6977 21.1282L11.6689 21.435L13.6602 21.6215L13.6889 21.3147L11.6977 21.1282ZM11.6651 21.4938L11.6536 21.8275L13.6525 21.8964L13.664 21.5627L11.6651 21.4938ZM11.6541 21.8161C11.6147 22.6749 11.5529 23.4742 11.4804 24.1585L13.4693 24.3692C13.5462 23.6431 13.6109 22.804 13.652 21.9078L11.6541 21.8161ZM11.4787 24.1755C11.4117 24.9321 11.3069 25.6837 11.1649 26.4269L13.1294 26.8021C13.284 25.993 13.398 25.1751 13.4709 24.3522L11.4787 24.1755ZM13.1472 26.6145V21.5225H11.1472V26.6145H13.1472ZM13.1472 21.5223C13.147 20.8614 13.2639 20.2091 13.489 19.6035L11.6143 18.9066C11.305 19.7387 11.147 20.6274 11.1472 21.5227L13.1472 21.5223ZM13.489 19.6034C13.7141 18.9978 14.0417 18.454 14.4485 18.0007L12.9601 16.6648C12.3793 17.3119 11.9235 18.0745 11.6143 18.9067L13.489 19.6034ZM14.4485 18.0007C14.8552 17.5477 15.332 17.1948 15.8485 16.9565L15.0107 15.1405C14.2368 15.4975 13.5411 16.0175 12.9601 16.6648L14.4485 18.0007ZM15.8486 16.9565C16.3647 16.7183 16.9135 16.5977 17.4645 16.5978L17.4651 14.5978C16.6194 14.5976 15.785 14.7832 15.0107 15.1405L15.8486 16.9565ZM17.4648 16.5978C17.61 16.5978 17.7577 16.6076 17.913 16.6238L18.1203 14.6346C17.9192 14.6137 17.6991 14.5978 17.4648 14.5978V16.5978Z" fill="white" mask="url(#path-14-inside-4_56_256)"/>
</g>
<g style="mix-blend-mode:multiply" opacity="0.3">
<path d="M34.4416 33.8328C34.4301 35.1073 34.4243 36.4011 34.4186 37.6949V37.6951C34.4164 37.9306 34.4191 38.176 34.4218 38.4212C34.4263 38.8295 34.4308 39.2371 34.4128 39.5973L34.4416 33.8328ZM34.4416 33.8328C34.4416 33.0556 34.4544 32.288 34.467 31.5329C34.4751 31.0495 34.4831 30.5712 34.4876 30.0987M34.4416 33.8328L34.4929 30.0988M30.0456 45.1908C31.3209 45.0924 32.5265 44.4841 33.4362 43.4706C34.4329 42.3601 34.9929 40.854 34.9929 39.2835V29.7907C34.991 29.8952 34.9893 30.0001 34.9875 30.1053C34.983 30.5852 34.9749 31.0657 34.9668 31.5492C34.9543 32.2999 34.9416 33.0579 34.9416 33.8328V33.8373H34.9415C34.9301 35.1105 34.9243 36.4033 34.9186 37.6973L34.9186 37.6996C34.9166 37.9123 34.9191 38.1473 34.9216 38.3883C34.9248 38.6877 34.9281 38.9964 34.9231 39.2835C34.9211 39.3953 34.9179 39.5039 34.9129 39.6073L30.0456 45.1908ZM30.0456 45.1908C30.3855 45.1556 30.7214 45.0827 31.0483 44.973C31.5689 44.8113 32.0621 44.562 32.511 44.2354L32.512 44.2346C32.8326 44 33.1272 43.7303 33.3921 43.431C33.899 42.8585 34.2974 42.178 34.5623 41.4294L34.5623 41.4295L34.5653 41.4206L34.6975 41.0235L34.7058 40.9988L34.7114 40.9733L30.0456 45.1908ZM34.4929 30.0988V29.7863C34.4911 29.8901 34.4893 29.9943 34.4876 30.0987M34.4929 30.0988L34.4876 30.0987M34.4929 30.0988V30.0988L34.4876 30.0987" fill="#0075FF" stroke="white"/>
</g>
<g style="mix-blend-mode:overlay" opacity="0.6">
<mask id="path-17-inside-5_56_256" fill="white">
<path d="M30.3363 8.60342C30.2616 8.61623 30.0719 8.64826 29.7902 8.68669C29.6177 8.6995 29.3935 8.78212 29.1521 8.82696C28.8872 8.90842 28.6263 9.00483 28.3703 9.11582C28.0764 9.25228 27.792 9.41285 27.5194 9.5962C27.222 9.79876 26.9414 10.0302 26.6807 10.2879C26.5421 10.416 26.4214 10.5698 26.2955 10.7107C26.1805 10.8772 26.0477 11.0239 25.9443 11.1975C25.7196 11.5315 25.5287 11.8921 25.3751 12.2729C25.2164 12.6501 25.095 13.0455 25.013 13.452C24.99 13.657 24.9325 13.8107 24.9152 14.0541L24.8865 14.3865L24.8807 14.4704V14.4768L24.875 14.4826V14.5281L24.8692 14.6946C24.829 15.5785 24.7658 16.3983 24.691 17.1029C24.6212 17.8948 24.5118 18.6817 24.3633 19.4599V14.4704C24.3633 13.6927 24.5009 12.9226 24.7682 12.2041C25.0355 11.4857 25.4273 10.833 25.9212 10.2833C26.415 9.73369 27.0013 9.29789 27.6464 9.00084C28.2916 8.7038 28.9829 8.55134 29.681 8.55218C29.9003 8.54967 30.1194 8.5668 30.3363 8.60342Z"/>
</mask>
<path d="M30.3363 8.60342C30.2616 8.61623 30.0719 8.64826 29.7902 8.68669C29.6177 8.6995 29.3935 8.78212 29.1521 8.82696C28.8872 8.90842 28.6263 9.00483 28.3703 9.11582C28.0764 9.25228 27.792 9.41285 27.5194 9.5962C27.222 9.79876 26.9414 10.0302 26.6807 10.2879C26.5421 10.416 26.4214 10.5698 26.2955 10.7107C26.1805 10.8772 26.0477 11.0239 25.9443 11.1975C25.7196 11.5315 25.5287 11.8921 25.3751 12.2729C25.2164 12.6501 25.095 13.0455 25.013 13.452C24.99 13.657 24.9325 13.8107 24.9152 14.0541L24.8865 14.3865L24.8807 14.4704V14.4768L24.875 14.4826V14.5281L24.8692 14.6946C24.829 15.5785 24.7658 16.3983 24.691 17.1029C24.6212 17.8948 24.5118 18.6817 24.3633 19.4599V14.4704C24.3633 13.6927 24.5009 12.9226 24.7682 12.2041C25.0355 11.4857 25.4273 10.833 25.9212 10.2833C26.415 9.73369 27.0013 9.29789 27.6464 9.00084C28.2916 8.7038 28.9829 8.55134 29.681 8.55218C29.9003 8.54967 30.1194 8.5668 30.3363 8.60342Z" fill="#0075FF"/>
<path d="M30.3363 8.60342L30.5053 9.58905L30.5028 7.61738L30.3363 8.60342ZM29.7902 8.68669L29.8643 9.68394L29.8949 9.68166L29.9254 9.67751L29.7902 8.68669ZM29.1521 8.82696L28.9695 7.84377L28.913 7.85425L28.8581 7.87115L29.1521 8.82696ZM28.3703 9.11582L27.9725 8.19832L27.9608 8.20343L27.9491 8.20883L28.3703 9.11582ZM27.5194 9.5962L26.9613 8.76646L26.9565 8.76971L27.5194 9.5962ZM26.6807 10.2879L27.3596 11.0222L27.3718 11.0109L27.3837 10.9991L26.6807 10.2879ZM26.2955 10.7107L25.5498 10.0444L25.5081 10.091L25.4726 10.1425L26.2955 10.7107ZM25.9443 11.1975L26.774 11.7555L26.7893 11.7329L26.8032 11.7095L25.9443 11.1975ZM25.3751 12.2729L26.2969 12.6606L26.2997 12.6539L26.3025 12.647L25.3751 12.2729ZM25.013 13.452L24.0327 13.2542L24.0241 13.2971L24.0192 13.3405L25.013 13.452ZM24.9152 14.0541L25.9115 14.1402L25.9122 14.1325L25.9127 14.1248L24.9152 14.0541ZM24.8865 14.3865L23.8902 14.3004L23.8894 14.3093L23.8888 14.3182L24.8865 14.3865ZM24.8807 14.4704L23.8831 14.4021L23.8807 14.4362V14.4704H24.8807ZM24.8807 14.4768L25.5889 15.1829L25.8807 14.8902V14.4768H24.8807ZM24.875 14.4826L24.1669 13.7765L23.875 14.0692V14.4826H24.875ZM24.875 14.5281L25.8744 14.5626L25.875 14.5453V14.5281H24.875ZM24.8692 14.6946L25.8683 14.7401L25.8686 14.7291L24.8692 14.6946ZM24.691 17.1029L23.6966 16.9974L23.6957 17.0062L23.6949 17.015L24.691 17.1029ZM24.3633 19.4599H23.3633L25.3456 19.6473L24.3633 19.4599ZM25.9212 10.2833L26.665 10.9517L26.6651 10.9517L25.9212 10.2833ZM27.6464 9.00084L27.2282 8.0925L27.2282 8.09251L27.6464 9.00084ZM29.681 8.55218L29.6798 9.55226L29.6925 9.55212L29.681 8.55218ZM30.1674 7.6178C30.1 7.62935 29.9221 7.65943 29.655 7.69587L29.9254 9.67751C30.2217 9.63709 30.4232 9.60312 30.5053 9.58905L30.1674 7.6178ZM29.7161 7.68944C29.5272 7.70347 29.3443 7.75143 29.2468 7.77663C29.1196 7.80949 29.0469 7.82939 28.9695 7.84377L29.3347 9.81015C29.4987 9.77969 29.6588 9.73586 29.7473 9.71299C29.7987 9.69969 29.8315 9.69174 29.8562 9.68656C29.8815 9.6813 29.881 9.6827 29.8643 9.68394L29.7161 7.68944ZM28.8581 7.87115C28.5577 7.96353 28.2622 8.07276 27.9725 8.19832L28.768 10.0333C28.9904 9.9369 29.2168 9.8533 29.4461 9.78277L28.8581 7.87115ZM27.9491 8.20883C27.6069 8.36771 27.2768 8.55422 26.9613 8.76648L28.0776 10.4259C28.3072 10.2715 28.5458 10.1369 28.7914 10.0228L27.9491 8.20883ZM26.9565 8.76971C26.6081 9.00704 26.2807 9.27728 25.9777 9.57675L27.3837 10.9991C27.6021 10.7832 27.836 10.5905 28.0824 10.4227L26.9565 8.76971ZM26.0018 9.5537C25.8174 9.72424 25.6168 9.96944 25.5498 10.0444L27.0412 11.3769C27.226 11.1701 27.2669 11.1078 27.3596 11.0222L26.0018 9.5537ZM25.4726 10.1425C25.4331 10.1997 25.3951 10.2473 25.321 10.3443C25.2563 10.4289 25.168 10.5467 25.0853 10.6854L26.8032 11.7095C26.824 11.6746 26.8538 11.6323 26.9102 11.5586C26.9571 11.4972 27.0429 11.3882 27.1184 11.2788L25.4726 10.1425ZM25.1145 10.6394C24.8502 11.0323 24.6269 11.4547 24.4478 11.8987L26.3025 12.647C26.4306 12.3296 26.589 12.0307 26.774 11.7555L25.1145 10.6394ZM24.4534 11.8851C24.2685 12.3244 24.1277 12.7835 24.0327 13.2542L25.9932 13.6498C26.0623 13.3075 26.1643 12.9759 26.2969 12.6606L24.4534 11.8851ZM24.0192 13.3405C24.014 13.3864 24.0063 13.4211 23.9824 13.5375C23.9602 13.6453 23.931 13.7955 23.9177 13.9834L25.9127 14.1248C25.9167 14.0693 25.9248 14.0209 25.9415 13.9398C25.9564 13.8672 25.9889 13.7226 26.0067 13.5635L24.0192 13.3405ZM23.9189 13.968L23.8902 14.3004L25.8828 14.4727L25.9115 14.1402L23.9189 13.968ZM23.8888 14.3182L23.8831 14.4021L25.8784 14.5388L25.8841 14.4549L23.8888 14.3182ZM23.8807 14.4704V14.4768H25.8807V14.4704H23.8807ZM24.1726 13.7707L24.1669 13.7765L25.5831 15.1887L25.5889 15.1829L24.1726 13.7707ZM23.875 14.4826V14.5281H25.875V14.4826H23.875ZM23.8756 14.4936L23.8698 14.6601L25.8686 14.7291L25.8744 14.5626L23.8756 14.4936ZM23.8703 14.6491C23.8309 15.5142 23.7691 16.314 23.6966 16.9974L25.6854 17.2084C25.7624 16.4827 25.8271 15.6428 25.8682 14.7401L23.8703 14.6491ZM23.6949 17.015C23.628 17.7736 23.5232 18.5273 23.381 19.2726L25.3456 19.6473C25.5004 18.836 25.6144 18.0159 25.6872 17.1908L23.6949 17.015ZM25.3633 19.4599V14.4704H23.3633V19.4599H25.3633ZM25.3633 14.4704C25.3633 13.81 25.4803 13.1581 25.7055 12.5529L23.831 11.8554C23.5215 12.6871 23.3633 13.5754 23.3633 14.4704H25.3633ZM25.7055 12.5529C25.9306 11.9477 26.2583 11.4044 26.665 10.9517L25.1774 9.61496C24.5964 10.2616 24.1405 11.0237 23.831 11.8554L25.7055 12.5529ZM26.6651 10.9517C27.0716 10.4992 27.5483 10.1469 28.0647 9.90918L27.2282 8.09251C26.4543 8.44883 25.7585 8.96817 25.1773 9.615L26.6651 10.9517ZM28.0647 9.90918C28.5806 9.67161 29.1291 9.55152 29.6798 9.55218L29.6822 7.55218C28.8367 7.55116 28.0025 7.73599 27.2282 8.0925L28.0647 9.90918ZM29.6925 9.55212C29.852 9.55029 30.0116 9.56274 30.1699 9.58947L30.5028 7.61738C30.2273 7.57086 29.9486 7.54904 29.6695 7.55225L29.6925 9.55212Z" fill="white" mask="url(#path-17-inside-5_56_256)"/>
</g>
<g style="mix-blend-mode:overlay" opacity="0.6">
<mask id="path-19-inside-6_56_256" fill="white">
<path d="M43.8747 15.7771C43.8229 15.7636 43.616 15.7188 43.2883 15.6746C43.0986 15.649 42.8686 15.6355 42.6099 15.6291C42.3216 15.6279 42.0336 15.6474 41.7476 15.6874C41.4175 15.7422 41.091 15.8212 40.7703 15.9238C40.4247 16.048 40.0899 16.2068 39.77 16.3984C39.0865 16.8152 38.4922 17.3921 38.0281 18.0893C37.7907 18.4383 37.5901 18.8165 37.4302 19.2166C37.2762 19.6034 37.1587 20.0069 37.0796 20.4207C37.0366 20.6294 37.0077 20.8414 36.9933 21.0548L36.9761 21.215L36.9703 21.247L36.9646 21.272L36.9588 21.3559C36.9531 21.4648 36.9473 21.5672 36.9416 21.6761C36.9129 22.0989 36.8784 22.5024 36.8381 22.8675C36.7683 23.6954 36.6589 24.5185 36.5104 25.3334V21.2399C36.5103 20.4619 36.6478 19.6915 36.915 18.9726C37.1822 18.2537 37.574 17.6005 38.0677 17.0504C38.5616 16.5002 39.1478 16.0639 39.793 15.7661C40.4382 15.4684 41.1297 15.3152 41.8281 15.3153C42.5314 15.3121 43.2279 15.4693 43.8747 15.7771Z"/>
</mask>
<path d="M43.8747 15.7771C43.8229 15.7636 43.616 15.7188 43.2883 15.6746C43.0986 15.649 42.8686 15.6355 42.6099 15.6291C42.3216 15.6279 42.0336 15.6474 41.7476 15.6874C41.4175 15.7422 41.091 15.8212 40.7703 15.9238C40.4247 16.048 40.0899 16.2068 39.77 16.3984C39.0865 16.8152 38.4922 17.3921 38.0281 18.0893C37.7907 18.4383 37.5901 18.8165 37.4302 19.2166C37.2762 19.6034 37.1587 20.0069 37.0796 20.4207C37.0366 20.6294 37.0077 20.8414 36.9933 21.0548L36.9761 21.215L36.9703 21.247L36.9646 21.272L36.9588 21.3559C36.9531 21.4648 36.9473 21.5672 36.9416 21.6761C36.9129 22.0989 36.8784 22.5024 36.8381 22.8675C36.7683 23.6954 36.6589 24.5185 36.5104 25.3334V21.2399C36.5103 20.4619 36.6478 19.6915 36.915 18.9726C37.1822 18.2537 37.574 17.6005 38.0677 17.0504C38.5616 16.5002 39.1478 16.0639 39.793 15.7661C40.4382 15.4684 41.1297 15.3152 41.8281 15.3153C42.5314 15.3121 43.2279 15.4693 43.8747 15.7771Z" fill="#0075FF"/>
<path d="M43.8747 15.7771L43.6231 16.7449L44.3044 14.8741L43.8747 15.7771ZM43.2883 15.6746L43.1544 16.6656L43.1546 16.6656L43.2883 15.6746ZM42.6099 15.6291L42.6347 14.6294L42.6244 14.6292L42.6141 14.6291L42.6099 15.6291ZM41.7476 15.6874L41.609 14.6971L41.5964 14.6988L41.5839 14.7009L41.7476 15.6874ZM40.7703 15.9238L40.4656 14.9713L40.4488 14.9767L40.4321 14.9827L40.7703 15.9238ZM39.77 16.3984L39.2562 15.5405L39.2494 15.5446L39.77 16.3984ZM38.0281 18.0893L38.855 18.6518L38.8606 18.6434L38.0281 18.0893ZM37.4302 19.2166L36.5017 18.8455L36.5012 18.8467L37.4302 19.2166ZM37.0796 20.4207L38.059 20.6226L38.0604 20.6155L38.0618 20.6085L37.0796 20.4207ZM36.9933 21.0548L37.9876 21.1619L37.9897 21.142L37.9911 21.122L36.9933 21.0548ZM36.9761 21.215L37.9604 21.3917L37.9666 21.357L37.9703 21.322L36.9761 21.215ZM36.9703 21.247L37.9449 21.4713L37.9503 21.4476L37.9546 21.4237L36.9703 21.247ZM36.9646 21.272L35.9901 21.0476L35.9723 21.1247L35.9669 21.2037L36.9646 21.272ZM36.9588 21.3559L35.9612 21.2876L35.9606 21.2954L35.9602 21.3032L36.9588 21.3559ZM36.9416 21.6761L37.9393 21.744L37.9398 21.7364L37.9402 21.7289L36.9416 21.6761ZM36.8381 22.8675L35.8441 22.7579L35.8427 22.7707L35.8417 22.7835L36.8381 22.8675ZM36.5104 25.3334H35.5104L37.4942 25.5127L36.5104 25.3334ZM36.5104 21.2399L37.5104 21.2399L37.5104 21.2398L36.5104 21.2399ZM36.915 18.9726L35.9777 18.6241L35.9777 18.6242L36.915 18.9726ZM41.8281 15.3153L41.828 16.3153L41.8326 16.3153L41.8281 15.3153ZM44.1263 14.8093C44.0232 14.7825 43.7741 14.7311 43.4219 14.6836L43.1546 16.6656C43.3019 16.6855 43.4193 16.7051 43.5024 16.7206C43.5912 16.7371 43.6299 16.7467 43.6231 16.7449L44.1263 14.8093ZM43.4221 14.6836C43.1794 14.6508 42.9076 14.6362 42.6347 14.6294L42.5852 16.6288C42.8296 16.6349 43.0178 16.6472 43.1544 16.6656L43.4221 14.6836ZM42.6141 14.6291C42.278 14.6277 41.9422 14.6504 41.609 14.6971L41.8862 16.6778C42.125 16.6444 42.3653 16.6281 42.6057 16.6291L42.6141 14.6291ZM41.5839 14.7009C41.2057 14.7637 40.8321 14.8541 40.4656 14.9713L41.075 16.8762C41.35 16.7883 41.6293 16.7207 41.9113 16.6739L41.5839 14.7009ZM40.4321 14.9827C40.0245 15.1292 39.6309 15.316 39.2562 15.5405L40.2838 17.2563C40.5488 17.0976 40.8249 16.9668 41.1085 16.8649L40.4321 14.9827ZM39.2494 15.5446C38.4355 16.0408 37.7368 16.7223 37.1957 17.5352L38.8606 18.6434C39.2477 18.0618 39.7374 17.5895 40.2906 17.2522L39.2494 15.5446ZM37.2013 17.5268C36.9223 17.937 36.6878 18.3796 36.5017 18.8455L38.3588 19.5877C38.4924 19.2535 38.6591 18.9396 38.8549 18.6518L37.2013 17.5268ZM36.5012 18.8467C36.3235 19.293 36.1882 19.7575 36.0974 20.233L38.0618 20.6085C38.1291 20.2563 38.229 19.9138 38.3593 19.5865L36.5012 18.8467ZM36.1001 20.2189C36.048 20.472 36.013 20.729 35.9956 20.9877L37.9911 21.122C38.0024 20.9538 38.0251 20.7868 38.059 20.6226L36.1001 20.2189ZM35.9991 20.9478L35.9818 21.1079L37.9703 21.322L37.9876 21.1619L35.9991 20.9478ZM35.9918 21.0382L35.9861 21.0703L37.9546 21.4237L37.9604 21.3917L35.9918 21.0382ZM35.9958 21.0227L35.9901 21.0476L37.9391 21.4963L37.9449 21.4713L35.9958 21.0227ZM35.9669 21.2037L35.9612 21.2876L37.9565 21.4242L37.9623 21.3403L35.9669 21.2037ZM35.9602 21.3032C35.9574 21.3567 35.9546 21.4087 35.9517 21.4617C35.9488 21.5144 35.9459 21.568 35.943 21.6234L37.9402 21.7289C37.943 21.6753 37.9459 21.6233 37.9487 21.5703C37.9516 21.5176 37.9545 21.464 37.9575 21.4086L35.9602 21.3032ZM35.9439 21.6083C35.9159 22.0207 35.8825 22.4099 35.8441 22.7579L37.8321 22.977C37.8742 22.5949 37.9098 22.177 37.9393 21.744L35.9439 21.6083ZM35.8417 22.7835C35.7746 23.5795 35.6694 24.3708 35.5266 25.1541L37.4942 25.5127C37.6485 24.6661 37.7621 23.8112 37.8346 22.9515L35.8417 22.7835ZM37.5104 25.3334V21.2399H35.5104V25.3334H37.5104ZM37.5104 21.2398C37.5103 20.579 37.6272 19.9267 37.8524 19.321L35.9777 18.6242C35.6684 19.4562 35.5103 20.3447 35.5104 21.2401L37.5104 21.2398ZM37.8524 19.321C38.0775 18.7154 38.4052 18.1716 38.8119 17.7184L37.3235 16.3825C36.7428 17.0295 36.287 17.7921 35.9777 18.6241L37.8524 19.321ZM38.8119 17.7184C39.2185 17.2653 39.6954 16.9125 40.212 16.6741L39.374 14.8581C38.6003 15.2152 37.9046 15.7351 37.3235 16.3825L38.8119 17.7184ZM40.212 16.6741C40.7282 16.436 41.2769 16.3152 41.828 16.3153L41.8282 14.3153C40.9825 14.3152 40.1482 14.5009 39.374 14.8581L40.212 16.6741ZM41.8326 16.3153C42.3829 16.3128 42.9311 16.4355 43.4449 16.6801L44.3044 14.8741C43.5246 14.503 42.6799 14.3114 41.8235 14.3153L41.8326 16.3153Z" fill="white" mask="url(#path-19-inside-6_56_256)"/>
</g>
<g style="mix-blend-mode:multiply" opacity="0.3">
<mask id="path-21-inside-7_56_256" fill="white">
<path d="M47.14 30.1373V46.0474C47.14 46.8249 47.0025 47.5949 46.7354 48.3134C46.4683 49.0318 46.0768 49.6846 45.5833 50.2344C45.0898 50.7843 44.5039 51.2204 43.8591 51.518C43.2142 51.8156 42.5231 51.9688 41.8252 51.9688C41.1272 51.9688 40.4361 51.8156 39.7913 51.518C39.1465 51.2204 38.5606 50.7843 38.0671 50.2344C37.5736 49.6846 37.1821 49.0318 36.915 48.3134C36.6479 47.5949 36.5104 46.8249 36.5104 46.0474C36.5104 46.0474 36.5277 46.1819 36.5622 46.4381C36.5767 46.5899 36.6036 46.74 36.6427 46.8864C36.6782 47.0891 36.7282 47.2882 36.7921 47.4821C37.0838 48.4647 37.6058 49.3427 38.3042 50.0251C39.0026 50.7075 39.852 51.1696 40.7646 51.3635C40.9543 51.402 41.1325 51.4148 41.3222 51.4404L41.6441 51.4468H41.8568L41.9316 51.434C42.337 51.4105 42.7384 51.333 43.1273 51.2034C43.9313 50.9259 44.6579 50.4229 45.2371 49.7424C45.5324 49.3929 45.7873 49.0037 45.996 48.5837C46.1941 48.1581 46.3428 47.7061 46.4386 47.2387C46.4899 47.0113 46.5264 46.7802 46.5479 46.5469L46.5708 46.1498V46.0474L46.5766 45.9763V45.7783C46.5766 45.2403 46.5823 44.7017 46.5881 44.1707C46.5881 43.1139 46.6226 42.0634 46.6341 41.0578C46.6743 39.0338 46.7376 37.1444 46.8123 35.5303C46.9503 32.2887 47.14 30.1373 47.14 30.1373Z"/>
</mask>
<path d="M47.14 30.1373V46.0474C47.14 46.8249 47.0025 47.5949 46.7354 48.3134C46.4683 49.0318 46.0768 49.6846 45.5833 50.2344C45.0898 50.7843 44.5039 51.2204 43.8591 51.518C43.2142 51.8156 42.5231 51.9688 41.8252 51.9688C41.1272 51.9688 40.4361 51.8156 39.7913 51.518C39.1465 51.2204 38.5606 50.7843 38.0671 50.2344C37.5736 49.6846 37.1821 49.0318 36.915 48.3134C36.6479 47.5949 36.5104 46.8249 36.5104 46.0474C36.5104 46.0474 36.5277 46.1819 36.5622 46.4381C36.5767 46.5899 36.6036 46.74 36.6427 46.8864C36.6782 47.0891 36.7282 47.2882 36.7921 47.4821C37.0838 48.4647 37.6058 49.3427 38.3042 50.0251C39.0026 50.7075 39.852 51.1696 40.7646 51.3635C40.9543 51.402 41.1325 51.4148 41.3222 51.4404L41.6441 51.4468H41.8568L41.9316 51.434C42.337 51.4105 42.7384 51.333 43.1273 51.2034C43.9313 50.9259 44.6579 50.4229 45.2371 49.7424C45.5324 49.3929 45.7873 49.0037 45.996 48.5837C46.1941 48.1581 46.3428 47.7061 46.4386 47.2387C46.4899 47.0113 46.5264 46.7802 46.5479 46.5469L46.5708 46.1498V46.0474L46.5766 45.9763V45.7783C46.5766 45.2403 46.5823 44.7017 46.5881 44.1707C46.5881 43.1139 46.6226 42.0634 46.6341 41.0578C46.6743 39.0338 46.7376 37.1444 46.8123 35.5303C46.9503 32.2887 47.14 30.1373 47.14 30.1373Z" fill="#0075FF"/>
<path d="M47.14 30.1373H48.14L46.1438 30.0494L47.14 30.1373ZM46.7354 48.3134L47.6727 48.6619L47.6727 48.6618L46.7354 48.3134ZM45.5833 50.2344L46.3275 50.9024L46.3276 50.9024L45.5833 50.2344ZM43.8591 51.518L44.2781 52.426L44.2781 52.426L43.8591 51.518ZM39.7913 51.518L40.2104 50.61L40.2103 50.61L39.7913 51.518ZM36.915 48.3134L35.9777 48.6618L35.9777 48.6619L36.915 48.3134ZM36.5104 46.0474L37.5023 45.9202L35.5104 46.0474H36.5104ZM36.5622 46.4381L37.5577 46.3431L37.5558 46.3238L37.5532 46.3046L36.5622 46.4381ZM36.6427 46.8864L37.6276 46.7135L37.6201 46.6706L37.6088 46.6285L36.6427 46.8864ZM36.7921 47.4821L37.7508 47.1976L37.7465 47.1832L37.7418 47.1689L36.7921 47.4821ZM38.3042 50.0251L37.6053 50.7404L37.6053 50.7404L38.3042 50.0251ZM40.7646 51.3635L40.5566 52.3417L40.566 52.3436L40.7646 51.3635ZM41.3222 51.4404L41.1884 52.4314L41.2451 52.439L41.3023 52.4402L41.3222 51.4404ZM41.6441 51.4468L41.6242 52.4466L41.6342 52.4468H41.6441V51.4468ZM41.8568 51.4468V52.4468H41.9419L42.0258 52.4324L41.8568 51.4468ZM41.9316 51.434L41.8737 50.4357L41.8178 50.4389L41.7626 50.4484L41.9316 51.434ZM43.1273 51.2034L43.4436 52.1521L43.4535 52.1487L43.1273 51.2034ZM45.2371 49.7424L45.9986 50.3906L46.001 50.3877L45.2371 49.7424ZM45.996 48.5837L46.8915 49.0288L46.8972 49.0173L46.9026 49.0057L45.996 48.5837ZM46.4386 47.2387L45.4631 47.0187L45.461 47.0283L45.459 47.038L46.4386 47.2387ZM46.5479 46.5469L47.5437 46.6385L47.5452 46.6217L47.5462 46.6048L46.5479 46.5469ZM46.5708 46.1498L47.5692 46.2076L47.5708 46.1788V46.1498H46.5708ZM46.5708 46.0474L45.5741 45.9668L45.5708 46.007V46.0474H46.5708ZM46.5766 45.9763L47.5733 46.0568L47.5766 46.0166V45.9763H46.5766ZM46.5881 44.1707L47.5881 44.1815V44.1707H46.5881ZM46.6341 41.0578L45.6342 41.038L45.6341 41.0464L46.6341 41.0578ZM46.8123 35.5303L47.8112 35.5766L47.8114 35.5728L46.8123 35.5303ZM46.14 30.1373V46.0474H48.14V30.1373H46.14ZM46.14 46.0474C46.14 46.7077 46.0231 47.3596 45.798 47.9649L47.6727 48.6618C47.9818 47.8303 48.14 46.9422 48.14 46.0474H46.14ZM45.7981 47.9649C45.5731 48.5701 45.2456 49.1136 44.8391 49.5665L46.3276 50.9024C46.908 50.2556 47.3635 49.4934 47.6727 48.6619L45.7981 47.9649ZM44.8392 49.5664C44.4328 50.0192 43.9562 50.3718 43.44 50.61L44.2781 52.426C45.0515 52.0691 45.7468 51.5493 46.3275 50.9024L44.8392 49.5664ZM43.4401 50.61C42.9242 50.8481 42.3758 50.9688 41.8252 50.9688V52.9688C42.6704 52.9688 43.5043 52.7831 44.2781 52.426L43.4401 50.61ZM41.8252 50.9688C41.2746 50.9688 40.7262 50.8481 40.2104 50.61L39.3723 52.426C40.1461 52.7831 40.9799 52.9688 41.8252 52.9688V50.9688ZM40.2103 50.61C39.6941 50.3718 39.2176 50.0192 38.8113 49.5665L37.3229 50.9024C37.9036 51.5493 38.5989 52.0691 39.3723 52.426L40.2103 50.61ZM38.8113 49.5665C38.4048 49.1135 38.0773 48.5701 37.8523 47.9649L35.9777 48.6619C36.2868 49.4934 36.7424 50.2556 37.3229 50.9024L38.8113 49.5665ZM37.8523 47.9649C37.6273 47.3596 37.5104 46.7077 37.5104 46.0474H35.5104C35.5104 46.9421 35.6685 47.8302 35.9777 48.6618L37.8523 47.9649ZM36.5104 46.0474C35.5186 46.1745 35.5186 46.1745 35.5186 46.1745C35.5186 46.1745 35.5186 46.1746 35.5186 46.1746C35.5186 46.1746 35.5186 46.1746 35.5186 46.1746C35.5186 46.1746 35.5186 46.1747 35.5186 46.1747C35.5186 46.1748 35.5186 46.1749 35.5186 46.1751C35.5187 46.1754 35.5187 46.1759 35.5188 46.1765C35.519 46.1777 35.5192 46.1793 35.5195 46.1816C35.52 46.186 35.5209 46.1925 35.522 46.2011C35.5242 46.2182 35.5275 46.2435 35.5319 46.2769C35.5406 46.3436 35.5537 46.4423 35.5711 46.5715L37.5532 46.3046C37.5361 46.1776 37.5233 46.081 37.5149 46.0164C37.5106 45.9841 37.5074 45.9598 37.5054 45.9437C37.5043 45.9356 37.5035 45.9296 37.503 45.9257C37.5028 45.9237 37.5026 45.9223 37.5025 45.9214C37.5024 45.9209 37.5024 45.9206 37.5023 45.9204C37.5023 45.9203 37.5023 45.9202 37.5023 45.9202C37.5023 45.9202 37.5023 45.9202 37.5023 45.9202C37.5023 45.9201 37.5023 45.9202 37.5023 45.9202C37.5023 45.9202 37.5023 45.9202 37.5023 45.9202C37.5023 45.9202 37.5023 45.9202 36.5104 46.0474ZM35.5667 46.533C35.5864 46.7393 35.623 46.9439 35.6765 47.1444L37.6088 46.6285C37.5841 46.536 37.5669 46.4405 37.5577 46.3431L35.5667 46.533ZM35.6577 47.0594C35.7016 47.3091 35.7633 47.5551 35.8424 47.7952L37.7418 47.1689C37.6932 47.0213 37.6549 46.869 37.6276 46.7135L35.6577 47.0594ZM35.8335 47.7666C36.1711 48.9042 36.7789 49.9328 37.6053 50.7404L39.0031 49.3099C38.4327 48.7525 37.9965 48.0253 37.7508 47.1976L35.8335 47.7666ZM37.6053 50.7404C38.4326 51.5487 39.45 52.1065 40.5567 52.3417L40.9724 50.3854C40.254 50.2327 39.5726 49.8664 39.003 49.3099L37.6053 50.7404ZM40.566 52.3436C40.7953 52.3901 41.0797 52.4167 41.1884 52.4314L41.456 50.4494C41.1853 50.4128 41.1133 50.4138 40.9631 50.3834L40.566 52.3436ZM41.3023 52.4402L41.6242 52.4466L41.664 50.447L41.3421 50.4406L41.3023 52.4402ZM41.6441 52.4468H41.8568V50.4468H41.6441V52.4468ZM42.0258 52.4324L42.1005 52.4196L41.7626 50.4484L41.6878 50.4612L42.0258 52.4324ZM41.9894 52.4323C42.4837 52.4036 42.9719 52.3093 43.4435 52.1521L42.8111 50.2547C42.5049 50.3568 42.1902 50.4173 41.8737 50.4357L41.9894 52.4323ZM43.4535 52.1487C44.4352 51.8099 45.3095 51.2001 45.9986 50.3906L44.4757 49.0942C44.0062 49.6457 43.4274 50.042 42.8011 50.2581L43.4535 52.1487ZM46.001 50.3877C46.3493 49.9754 46.648 49.5187 46.8915 49.0288L45.1005 48.1387C44.9265 48.4886 44.7154 48.8103 44.4732 49.0971L46.001 50.3877ZM46.9026 49.0057C47.1341 48.5083 47.3071 47.982 47.4183 47.4394L45.459 47.038C45.3786 47.4302 45.2541 47.8078 45.0893 48.1618L46.9026 49.0057ZM47.4141 47.4587C47.475 47.1888 47.5183 46.9147 47.5437 46.6385L45.5521 46.4554C45.5346 46.6456 45.5048 46.8338 45.4631 47.0187L47.4141 47.4587ZM47.5462 46.6048L47.5692 46.2076L45.5725 46.092L45.5495 46.4891L47.5462 46.6048ZM47.5708 46.1498V46.0474H45.5708V46.1498H47.5708ZM47.5676 46.1279L47.5733 46.0568L45.5798 45.8957L45.5741 45.9668L47.5676 46.1279ZM47.5766 45.9763V45.7783H45.5766V45.9763H47.5766ZM47.5766 45.7783C47.5766 45.2465 47.5823 44.7132 47.588 44.1815L45.5882 44.1599C45.5824 44.6901 45.5766 45.234 45.5766 45.7783H47.5766ZM47.5881 44.1707C47.5881 43.1142 47.6221 42.1108 47.634 41.0693L45.6341 41.0464C45.6231 42.0161 45.5881 43.1135 45.5881 44.1707H47.5881ZM47.6339 41.0777C47.674 39.0618 47.7369 37.1811 47.8112 35.5766L45.8134 35.484C45.7382 37.1076 45.6747 39.0059 45.6343 41.038L47.6339 41.0777ZM47.8114 35.5728C47.88 33.9619 47.9614 32.6224 48.0255 31.6866C48.0576 31.2188 48.0854 30.852 48.1051 30.6029C48.1149 30.4783 48.1227 30.3832 48.1281 30.3195C48.1307 30.2877 48.1328 30.2637 48.1341 30.2479C48.1348 30.24 48.1353 30.2341 48.1357 30.2303C48.1358 30.2284 48.1359 30.227 48.136 30.2261C48.1361 30.2257 48.1361 30.2254 48.1361 30.2252C48.1361 30.2251 48.1361 30.2251 48.1361 30.2251C48.1361 30.2251 48.1361 30.2251 48.1361 30.2251C48.1361 30.2251 48.1361 30.2251 47.14 30.1373C46.1438 30.0494 46.1438 30.0495 46.1438 30.0495C46.1438 30.0495 46.1438 30.0496 46.1438 30.0497C46.1438 30.0498 46.1438 30.0499 46.1438 30.0501C46.1438 30.0504 46.1437 30.0509 46.1437 30.0515C46.1435 30.0528 46.1434 30.0545 46.1432 30.0568C46.1428 30.0613 46.1422 30.0679 46.1415 30.0765C46.14 30.0938 46.1378 30.1193 46.135 30.1526C46.1295 30.2193 46.1214 30.3175 46.1113 30.4453C46.0911 30.7009 46.0628 31.0746 46.0302 31.5498C45.965 32.5001 45.8826 33.8571 45.8132 35.4878L47.8114 35.5728Z" fill="white" mask="url(#path-21-inside-7_56_256)"/>
</g>
</g>
</svg>
